<svg width="120" height="131" viewBox="0 0 120 131" fill="none" xmlns="http://www.w3.org/2000/svg">
<g clip-path="url(#clip0_119_3070)">
<path d="M60.0001 25.5993C64.4714 25.5993 68.8423 26.913 72.5601 29.3744C76.2778 31.8357 79.1755 35.3341 80.8866 39.4272C82.5977 43.5202 83.0454 48.0241 82.1731 52.3693C81.3008 56.7145 79.1476 60.7058 75.9859 63.8385C71.7462 68.0393 65.996 70.3993 60.0001 70.3993C54.0042 70.3993 48.2539 68.0393 44.0142 63.8385C39.7745 59.6377 37.3927 53.9402 37.3926 47.9993C37.3926 42.0585 39.7745 36.3609 44.0142 32.1601C46.1086 30.0736 48.5999 28.4193 51.3439 27.2931C54.0878 26.167 57.03 25.5912 60.0001 25.5993ZM60.0001 23.9993C55.2094 23.9993 50.5262 25.4068 46.5429 28.044C42.5596 30.6811 39.455 34.4294 37.6216 38.8149C35.7883 43.2003 35.3086 48.0259 36.2433 52.6814C37.1779 57.337 39.4848 61.6134 42.8724 64.9698C46.2599 68.3263 50.5759 70.6121 55.2745 71.5381C59.9732 72.4641 64.8435 71.9889 69.2695 70.1724C73.6955 68.3559 77.4785 65.2797 80.1401 61.3329C82.8017 57.3862 84.2223 52.746 84.2223 47.9993C84.2223 41.6341 81.6703 35.5296 77.1278 31.0287C72.5852 26.5278 66.4242 23.9993 60.0001 23.9993Z" fill="#F04451"/>
<path d="M47.4607 51.4314V44.59C46.8075 44.6819 46.1414 44.6107 45.5229 44.3828V51.5712C46.1471 51.3657 46.8131 51.3177 47.4607 51.4314V51.4314Z" fill="#F04451"/>
<path d="M56.2482 61.4829C56.2652 61.441 56.2828 61.3995 56.301 61.3583C56.3798 61.1813 56.4717 61.0104 56.576 60.8469C56.6516 60.7282 56.7336 60.6137 56.8215 60.5037L50.4241 56.844C50.164 57.4466 49.7565 57.9754 49.2383 58.3827L56.0244 62.2647C56.0532 62.0987 56.0927 61.9347 56.1428 61.7737C56.1738 61.6749 56.2097 61.5783 56.2482 61.4829Z" fill="#F04451"/>
<path d="M69.4976 56.9659C69.4976 56.9659 69.4938 56.958 69.4976 56.966L63.1274 60.61C63.5211 61.1379 63.7743 61.7555 63.8638 62.4058L70.7429 58.4705C70.2076 58.0798 69.7795 57.5626 69.4976 56.9659Z" fill="#F04451"/>
<path d="M67.5536 51.4314C68.502 49.8191 69.4135 48.1852 70.2882 46.5296C70.6882 45.7642 71.0793 44.9936 71.4616 44.2177C71.1891 44.0835 70.9331 43.9187 70.6987 43.7266C70.1868 44.4409 69.6857 45.1617 69.1955 45.8888C68.1731 47.4073 67.1884 48.948 66.2414 50.5109L64.4002 49.2194C64.238 49.7624 63.9717 50.2693 63.6157 50.7123C63.557 50.7859 63.4966 50.8579 63.4335 50.9276C63.4248 50.9372 63.4163 50.947 63.4075 50.9566C63.3899 50.9758 63.3713 50.9941 63.3533 51.0129L65.3855 51.9392C64.3814 53.6398 63.4175 55.3638 62.4937 57.1114C62.1175 57.8315 61.7488 58.556 61.3877 59.2849C61.6795 59.3989 61.9566 59.547 62.2132 59.7259C62.6784 59.0724 63.1349 58.4138 63.5826 57.7501C64.7186 56.0631 65.809 54.3491 66.8535 52.6083L69.4326 53.7838C69.5437 53.5221 69.6832 53.2731 69.8486 53.0412L67.5536 51.4314Z" fill="#F04451"/>
<path d="M63.2567 48.4174C63.3704 47.6793 63.2202 46.9249 62.832 46.2849C62.4439 45.6448 61.8423 45.1592 61.1312 44.912C60.42 44.6648 59.6441 44.6716 58.9375 44.9312C58.2308 45.1908 57.638 45.6868 57.2613 46.3336C56.8847 46.9803 56.7479 47.7372 56.8747 48.4732C57.0015 49.2093 57.3839 49.8783 57.9557 50.3647C58.5276 50.851 59.2529 51.1241 60.0065 51.1367C60.76 51.1494 61.4943 50.9007 62.0824 50.4338C62.716 49.9321 63.1353 49.212 63.2567 48.4174Z" fill="#F04451"/>
<path d="M63.2866 35.3551V35.3551L69.6496 38.9951C69.7415 38.8065 69.8484 38.6256 69.9693 38.454C70.0315 38.3654 70.0966 38.2789 70.1658 38.1958C70.2063 38.1472 70.2479 38.0997 70.2906 38.0531C70.4306 37.9009 70.5824 37.7598 70.7447 37.631C70.8004 37.5865 70.8574 37.5437 70.9158 37.5023L64.0039 33.5484V33.5483C63.922 34.2008 63.6753 34.8222 63.2866 35.3551Z" fill="#F04451"/>
<path d="M57.977 34.709C58.2001 34.9868 58.4773 35.2174 58.7921 35.3869C59.1069 35.5565 59.4528 35.6616 59.8095 35.696C59.8944 35.7042 59.9802 35.709 60.0672 35.709C60.1543 35.709 60.24 35.7042 60.325 35.696C60.9864 35.6311 61.6 35.3252 62.0469 34.8376C62.4938 34.3501 62.7422 33.7155 62.7439 33.0569C62.7439 32.9771 62.7388 32.8985 62.7318 32.8205C62.6726 32.1608 62.3662 31.5469 61.8731 31.0998C61.3799 30.6527 60.7357 30.4048 60.0673 30.4048C59.3988 30.4048 58.7546 30.6527 58.2614 31.0998C57.7683 31.5469 57.4619 32.1608 57.4027 32.8205C57.3957 32.8985 57.3906 32.9771 57.3906 33.0569C57.3905 33.6577 57.5973 34.2406 57.977 34.709Z" fill="#F04451"/>
<path d="M50.8491 41.144C51.7285 41.2162 52.6079 41.2742 53.4872 41.3238C55.4061 41.4265 57.325 41.4786 59.2438 41.4912L59.0404 43.5745C59.7161 43.4178 60.4191 43.4178 61.0948 43.5745L60.8914 41.4919C62.8103 41.4807 64.7291 41.4254 66.648 41.326C67.5274 41.2766 68.4069 41.2186 69.2864 41.1462V41.1461C69.2511 40.8477 69.2511 40.5463 69.2864 40.2479C68.4069 40.1754 67.5274 40.1173 66.648 40.068C64.6774 39.9626 62.7067 39.9103 60.7361 39.9011L60.4499 36.9707C60.324 36.9826 60.1966 36.9892 60.0676 36.9892C59.9386 36.9892 59.8112 36.9826 59.6853 36.9707L59.3991 39.9016C57.4285 39.9123 55.4579 39.9647 53.4872 40.0701C52.6079 40.1197 51.7285 40.1777 50.8491 40.25C50.8841 40.547 50.8841 40.847 50.8491 41.144L50.8491 41.144Z" fill="#F04451"/>
<path d="M52.4861 51.4982L50.1044 53.1689C50.2525 53.3952 50.3765 53.6361 50.4746 53.8877L53.1761 52.6564C54.215 54.3787 55.2956 56.0766 56.4178 57.7501C56.8528 58.3921 57.2947 59.03 57.7435 59.664C57.8911 59.5669 58.045 59.4797 58.2043 59.4029C58.2071 59.4016 58.2097 59.4001 58.2124 59.3988C58.3359 59.3401 58.4624 59.2877 58.5913 59.242C58.2384 58.5268 57.8769 57.8166 57.5067 57.1115C56.595 55.3784 55.6405 53.6705 54.6433 51.9876L56.7817 51.0129C56.4094 50.6253 56.1111 50.174 55.9012 49.6809C55.8629 49.5912 55.8286 49.4996 55.7962 49.407C55.7744 49.345 55.754 49.2825 55.7348 49.2193L53.7992 50.5772C52.8373 48.9932 51.8392 47.4304 50.8049 45.8889C50.3286 45.1856 49.8437 44.4873 49.3503 43.7939C49.1077 43.9822 48.8438 44.1418 48.564 44.2696C48.9367 45.0289 49.3194 45.7822 49.7122 46.5297C50.5962 48.2097 51.5208 49.8659 52.4861 51.4982Z" fill="#F04451"/>
<path d="M72.6746 52.687C72.0079 52.7981 71.4104 53.1604 71.0072 53.6982C70.604 54.2359 70.4264 54.9073 70.5116 55.5719C70.5968 56.2364 70.9381 56.8426 71.4642 57.2634C71.9903 57.6842 72.6602 57.887 73.3338 57.8294C74.0074 57.7718 74.6324 57.4582 75.0779 56.9543C75.5234 56.4504 75.7549 55.7953 75.7239 55.1261C75.6929 54.4569 75.4018 53.8256 74.9116 53.3643C74.4214 52.9029 73.77 52.6474 73.094 52.6512C72.9534 52.6522 72.8132 52.6642 72.6746 52.687Z" fill="#F04451"/>
<path d="M49.2949 54.4254C49.0731 53.8119 48.6271 53.3032 48.0451 52.9997C47.463 52.6962 46.7873 52.6201 46.1513 52.7863C45.5153 52.9526 44.9655 53.3492 44.6103 53.8977C44.2551 54.4462 44.1205 55.1068 44.2331 55.7488C44.3457 56.3909 44.6972 56.9678 45.2182 57.3655C45.7393 57.7632 46.3919 57.9528 47.0472 57.8969C47.7025 57.8409 48.3128 57.5434 48.7574 57.0633C49.2021 56.5831 49.4488 55.9551 49.4488 55.3034C49.4482 55.0042 49.3961 54.7073 49.2949 54.4254Z" fill="#F04451"/>
<path d="M50.4853 38.9951L56.8484 35.3551L56.8416 35.3457C56.7946 35.2808 56.7496 35.2145 56.7066 35.1467C56.3988 34.6621 56.2024 34.1165 56.1311 33.5483V33.5484L49.2192 37.5023C49.7606 37.8872 50.1959 38.4004 50.4853 38.9951Z" fill="#F04451"/>
<path d="M48.592 42.7545C49.0994 42.3453 49.4377 41.766 49.5429 41.1262C49.648 40.4865 49.5127 39.8307 49.1626 39.2832C48.8124 38.7356 48.2718 38.3343 47.6431 38.1553C47.0143 37.9762 46.3411 38.0319 45.751 38.3117C45.1609 38.5915 44.6949 39.076 44.4411 39.6734C44.1874 40.2709 44.1637 40.9398 44.3743 41.5535C44.585 42.1671 45.0155 42.6829 45.5843 43.0031C46.1531 43.3234 46.8207 43.4258 47.4606 43.291C47.6494 43.2509 47.8332 43.1905 48.0088 43.1108C48.2178 43.0173 48.4138 42.8975 48.592 42.7545Z" fill="#F04451"/>
<path d="M72.6743 44.59V51.3933C72.8136 51.3787 72.9536 51.3713 73.0936 51.3712C73.6147 51.3708 74.1307 51.4723 74.6121 51.67V44.3828C73.9936 44.6107 73.3276 44.6819 72.6743 44.59Z" fill="#F04451"/>
<path d="M70.5519 40.6967C70.5454 41.4125 70.8206 42.1026 71.319 42.6208C71.8175 43.1389 72.5 43.4444 73.2219 43.4723C73.9438 43.5003 74.6483 43.2486 75.186 42.7706C75.7238 42.2926 76.0525 41.6258 76.1025 40.9117C76.1525 40.1976 75.9198 39.4923 75.4538 38.9453C74.9878 38.3983 74.3251 38.0527 73.6062 37.9816C72.8873 37.9106 72.1688 38.1197 71.6029 38.5648C71.0371 39.0098 70.6684 39.6557 70.575 40.3655C70.5603 40.4753 70.5526 40.5859 70.5519 40.6967Z" fill="#F04451"/>
<path d="M61.4576 60.7661C61.0561 60.4914 60.5864 60.3305 60.0993 60.3009C59.6122 60.2713 59.1263 60.3741 58.6938 60.5981C58.2614 60.8222 57.8989 61.1591 57.6456 61.5723C57.3923 61.9856 57.2577 62.4596 57.2563 62.9431C57.2563 62.9522 57.2576 62.9611 57.2577 62.9702C57.2642 63.6549 57.538 64.3106 58.0216 64.7997C58.5053 65.2888 59.1613 65.5735 59.8521 65.594C60.5428 65.6145 61.2148 65.3692 61.7272 64.9097C62.2395 64.4501 62.5524 63.8118 62.6002 63.1287C62.6046 63.0671 62.6097 63.0057 62.6097 62.9431C62.6103 62.3274 62.3937 61.7308 61.9973 61.2566C61.8407 61.0696 61.6592 60.9046 61.4576 60.7661Z" fill="#F04451"/>
</g>
<path d="M30.4602 90.35H31.3452L35.7702 101H34.6602L33.2802 97.67H28.4952L27.1302 101H26.0052L30.4602 90.35ZM33.0402 96.845L30.8952 91.58L28.7202 96.845H33.0402ZM37.0719 101V93.185H38.0919V96.545H42.5619V93.185H43.5819V101H42.5619V97.46H38.0919V101H37.0719ZM45.202 98.75C45.202 98.26 45.342 97.84 45.622 97.49C45.902 97.13 46.287 96.855 46.777 96.665C47.277 96.465 47.852 96.365 48.502 96.365C48.882 96.365 49.277 96.395 49.687 96.455C50.097 96.515 50.462 96.605 50.782 96.725V96.065C50.782 95.405 50.587 94.88 50.197 94.49C49.807 94.1 49.267 93.905 48.577 93.905C48.157 93.905 47.742 93.985 47.332 94.145C46.932 94.295 46.512 94.52 46.072 94.82L45.682 94.1C46.192 93.75 46.692 93.49 47.182 93.32C47.672 93.14 48.172 93.05 48.682 93.05C49.642 93.05 50.402 93.325 50.962 93.875C51.522 94.425 51.802 95.185 51.802 96.155V99.77C51.802 99.91 51.832 100.015 51.892 100.085C51.952 100.145 52.047 100.18 52.177 100.19V101C52.067 101.01 51.972 101.02 51.892 101.03C51.812 101.04 51.752 101.04 51.712 101.03C51.462 101.02 51.272 100.94 51.142 100.79C51.012 100.64 50.942 100.48 50.932 100.31L50.917 99.74C50.567 100.19 50.112 100.54 49.552 100.79C48.992 101.03 48.422 101.15 47.842 101.15C47.342 101.15 46.887 101.045 46.477 100.835C46.077 100.615 45.762 100.325 45.532 99.965C45.312 99.595 45.202 99.19 45.202 98.75ZM50.437 99.35C50.547 99.21 50.632 99.075 50.692 98.945C50.752 98.815 50.782 98.7 50.782 98.6V97.46C50.442 97.33 50.087 97.23 49.717 97.16C49.357 97.09 48.992 97.055 48.622 97.055C47.892 97.055 47.302 97.2 46.852 97.49C46.402 97.78 46.177 98.175 46.177 98.675C46.177 98.965 46.252 99.24 46.402 99.5C46.552 99.75 46.772 99.96 47.062 100.13C47.352 100.29 47.692 100.37 48.082 100.37C48.572 100.37 49.027 100.275 49.447 100.085C49.877 99.895 50.207 99.65 50.437 99.35ZM53.2559 101.045V100.115C53.5259 100.115 53.7659 100.045 53.9759 99.905C54.1859 99.755 54.3709 99.505 54.5309 99.155C54.7009 98.805 54.8359 98.325 54.9359 97.715C55.0359 97.095 55.1009 96.31 55.1309 95.36L55.2209 93.185H60.2909V101H59.2709V94.1H56.1209L56.0909 95.45C56.0509 96.53 55.9659 97.435 55.8359 98.165C55.7059 98.885 55.5209 99.455 55.2809 99.875C55.0509 100.295 54.7659 100.595 54.4259 100.775C54.0859 100.955 53.6959 101.045 53.2559 101.045ZM62.5309 101V93.2H63.5509V99.62L68.3059 93.185H69.2209V101H68.2009V94.685L63.5209 101H62.5309ZM73.4021 101V94.1H70.6121V93.185H77.2121V94.1H74.4221V101H73.4021ZM78.5856 101V93.2H79.6056V99.62L84.3606 93.185H85.2756V101H84.2556V94.685L79.5756 101H78.5856ZM87.4918 101V93.185H88.5118V96.53H89.6818L92.3068 93.185H93.4768L90.4918 96.98L93.8518 101H92.6518L89.6818 97.475H88.5118V101H87.4918Z" fill="white"/>
<defs>
<clipPath id="clip0_119_3070">
<rect width="48.4444" height="48" fill="white" transform="translate(35.7778 24)"/>
</clipPath>
</defs>
</svg>
