<svg width="120" height="131" viewBox="0 0 120 131" fill="none" xmlns="http://www.w3.org/2000/svg">
<g clip-path="url(#clip0_119_3061)">
<path d="M59.9995 25.5988C64.4298 25.5988 68.7606 26.9125 72.4443 29.3739C76.128 31.8352 78.999 35.3336 80.6944 39.4267C82.3898 43.5198 82.8334 48.0236 81.9691 52.3688C81.1048 56.714 78.9714 60.7053 75.8387 63.838C71.6372 68.0354 65.9407 70.3925 60.0018 70.3911C54.0628 70.3896 48.3675 68.0297 44.1681 63.8303C39.9686 59.6308 37.6087 53.9355 37.6073 47.9966C37.6058 42.0576 39.9629 36.3612 44.1603 32.1596C46.2355 30.0731 48.7039 28.4188 51.4227 27.2926C54.1415 26.1665 57.0567 25.5907 59.9995 25.5988ZM59.9995 23.9988C55.2528 23.9988 50.6126 25.4064 46.6658 28.0435C42.7191 30.6807 39.6429 34.429 37.8264 38.8144C36.0099 43.1998 35.5346 48.0254 36.4607 52.6809C37.3867 57.3365 39.6725 61.6129 43.029 64.9693C46.3854 68.3258 50.6618 70.6116 55.3174 71.5376C59.9729 72.4637 64.7985 71.9884 69.1839 70.1719C73.5694 68.3554 77.3176 65.2792 79.9548 61.3325C82.5919 57.3857 83.9995 52.7455 83.9995 47.9988C83.9995 41.6336 81.4709 35.5291 76.9701 31.0282C72.4692 26.5274 66.3647 23.9988 59.9995 23.9988Z" fill="#F04451"/>
<path d="M69.8199 39.7726C69.7948 39.7605 69.7691 39.7498 69.7428 39.7407L69.7431 39.7398C69.7431 39.7398 69.7339 39.737 69.719 39.7325C69.7135 39.7309 69.708 39.7293 69.7025 39.7276C69.6902 39.7239 69.6743 39.7191 69.6564 39.7138C69.6318 39.7065 69.6014 39.6975 69.5665 39.6872C68.9046 39.4916 66.4121 38.7698 63.0947 37.9859C60.1126 37.2813 59.0406 38.6718 57.0933 40.6191C55.3101 42.4023 47.5539 50.7952 46.0532 52.3892C45.9162 52.5348 45.8401 52.7273 45.8403 52.9272V55.818C45.8403 55.994 45.8994 56.1649 46.008 56.3033C46.1166 56.4417 46.2686 56.5397 46.4395 56.5815L53.6455 58.3458C53.7629 58.3745 53.8854 58.3758 54.0034 58.3495C54.1214 58.3232 54.2318 58.27 54.3259 58.1941L60.453 53.4241L62.9449 51.4165L64.3209 50.3079L63.0687 51.8226L61.552 53.6574L65.7174 54.8099L65.718 54.8088C65.7868 54.8297 65.8562 54.8493 65.9269 54.8653C68.5424 55.46 71.4376 52.5336 72.3936 48.329C73.2955 44.3623 72.1487 40.6765 69.8199 39.7726ZM53.556 57.2559C53.5559 57.3232 53.5407 57.3896 53.5112 57.4501C53.4818 57.5106 53.439 57.5636 53.3861 57.6051C53.3332 57.6467 53.2715 57.6756 53.2057 57.6898C53.14 57.704 53.0718 57.7031 53.0065 57.6871L46.646 56.1304C46.5494 56.1068 46.4636 56.0514 46.4022 55.9733C46.3409 55.8951 46.3075 55.7986 46.3075 55.6992V53.7976C46.3075 53.7304 46.3228 53.664 46.3523 53.6035C46.3817 53.543 46.4245 53.4899 46.4774 53.4484C46.5304 53.4069 46.592 53.3779 46.6578 53.3637C46.7236 53.3495 46.7917 53.3505 46.857 53.3665L53.2175 54.9232C53.3141 54.9468 53.3999 55.0021 53.4612 55.0803C53.5226 55.1585 53.5559 55.255 53.556 55.3544V57.2559ZM62.8704 43.6548L60.7365 45.8958C60.6774 45.9578 60.603 46.0032 60.5208 46.0273C60.4385 46.0514 60.3514 46.0534 60.2681 46.033L55.0112 44.7474C54.9282 44.7271 54.852 44.6853 54.7903 44.6263C54.7285 44.5672 54.6834 44.493 54.6594 44.411C54.6355 44.3289 54.6335 44.2421 54.6537 44.1591C54.674 44.0761 54.7157 43.9998 54.7747 43.938L56.9079 41.704C56.9669 41.6421 57.0412 41.5969 57.1232 41.5729C57.2053 41.5489 57.2922 41.5469 57.3752 41.5671L62.6328 42.8458C62.7158 42.866 62.7921 42.9076 62.8539 42.9666C62.9157 43.0256 62.9609 43.0998 62.985 43.1817C63.0091 43.2637 63.0111 43.3506 62.991 43.4336C62.9709 43.5166 62.9293 43.5929 62.8704 43.6548L62.8704 43.6548ZM71.214 48.1726C70.6246 50.7646 68.8398 52.5687 67.2275 52.2021C67.1243 52.1785 67.0232 52.1462 66.9253 52.1058C65.5142 51.5246 64.8239 49.2698 65.3752 46.8451C65.9646 44.2532 67.7494 42.4491 69.3617 42.8158C69.6295 42.878 69.8812 42.996 70.1004 43.162C71.2108 43.9899 71.7049 46.0136 71.214 48.1726H71.214Z" fill="#F04451"/>
</g>
<path d="M42.5571 91.28H38.7621V101H37.7121V91.28H33.9171V90.35H42.5571V91.28ZM46.5847 101.15C45.9347 101.15 45.3497 100.98 44.8297 100.64C44.3197 100.3 43.9147 99.88 43.6147 99.38V104.195H42.5947V93.185H43.5097V94.7C43.8197 94.21 44.2347 93.815 44.7547 93.515C45.2747 93.205 45.8297 93.05 46.4197 93.05C46.9597 93.05 47.4547 93.165 47.9047 93.395C48.3547 93.615 48.7447 93.915 49.0747 94.295C49.4047 94.675 49.6597 95.11 49.8397 95.6C50.0297 96.08 50.1247 96.58 50.1247 97.1C50.1247 97.83 49.9747 98.505 49.6747 99.125C49.3847 99.735 48.9747 100.225 48.4447 100.595C47.9147 100.965 47.2947 101.15 46.5847 101.15ZM46.2997 100.25C46.7297 100.25 47.1147 100.165 47.4547 99.995C47.7947 99.815 48.0847 99.575 48.3247 99.275C48.5747 98.975 48.7647 98.64 48.8947 98.27C49.0247 97.89 49.0897 97.5 49.0897 97.1C49.0897 96.68 49.0147 96.28 48.8647 95.9C48.7247 95.52 48.5197 95.185 48.2497 94.895C47.9797 94.605 47.6697 94.375 47.3197 94.205C46.9697 94.035 46.5897 93.95 46.1797 93.95C45.9197 93.95 45.6497 94 45.3697 94.1C45.0897 94.2 44.8197 94.345 44.5597 94.535C44.3097 94.715 44.0997 94.92 43.9297 95.15C43.7597 95.38 43.6547 95.625 43.6147 95.885V98.285C43.7747 98.655 43.9897 98.99 44.2597 99.29C44.5297 99.58 44.8397 99.815 45.1897 99.995C45.5497 100.165 45.9197 100.25 46.2997 100.25ZM55.2275 101.15C54.6675 101.15 54.1475 101.045 53.6675 100.835C53.1875 100.615 52.7725 100.32 52.4225 99.95C52.0725 99.57 51.7975 99.135 51.5975 98.645C51.4075 98.155 51.3125 97.63 51.3125 97.07C51.3125 96.34 51.4775 95.67 51.8075 95.06C52.1475 94.45 52.6125 93.965 53.2025 93.605C53.7925 93.235 54.4625 93.05 55.2125 93.05C55.9825 93.05 56.6525 93.235 57.2225 93.605C57.8025 93.975 58.2575 94.465 58.5875 95.075C58.9175 95.675 59.0825 96.335 59.0825 97.055C59.0825 97.135 59.0825 97.215 59.0825 97.295C59.0825 97.365 59.0775 97.42 59.0675 97.46H52.3775C52.4275 98.02 52.5825 98.52 52.8425 98.96C53.1125 99.39 53.4575 99.735 53.8775 99.995C54.3075 100.245 54.7725 100.37 55.2725 100.37C55.7825 100.37 56.2625 100.24 56.7125 99.98C57.1725 99.72 57.4925 99.38 57.6725 98.96L58.5575 99.2C58.3975 99.57 58.1525 99.905 57.8225 100.205C57.4925 100.505 57.1025 100.74 56.6525 100.91C56.2125 101.07 55.7375 101.15 55.2275 101.15ZM52.3475 96.725H58.1225C58.0825 96.155 57.9275 95.655 57.6575 95.225C57.3975 94.795 57.0525 94.46 56.6225 94.22C56.2025 93.97 55.7375 93.845 55.2275 93.845C54.7175 93.845 54.2525 93.97 53.8325 94.22C53.4125 94.46 53.0675 94.8 52.7975 95.24C52.5375 95.67 52.3875 96.165 52.3475 96.725ZM60.6413 101V93.185H61.6613V96.545H66.1313V93.185H67.1513V101H66.1313V97.46H61.6613V101H60.6413ZM72.7764 101.15C72.2164 101.15 71.6964 101.045 71.2164 100.835C70.7364 100.615 70.3214 100.32 69.9714 99.95C69.6214 99.57 69.3464 99.135 69.1464 98.645C68.9564 98.155 68.8614 97.63 68.8614 97.07C68.8614 96.34 69.0264 95.67 69.3564 95.06C69.6964 94.45 70.1614 93.965 70.7514 93.605C71.3414 93.235 72.0114 93.05 72.7614 93.05C73.5314 93.05 74.2014 93.235 74.7714 93.605C75.3514 93.975 75.8064 94.465 76.1364 95.075C76.4664 95.675 76.6314 96.335 76.6314 97.055C76.6314 97.135 76.6314 97.215 76.6314 97.295C76.6314 97.365 76.6264 97.42 76.6164 97.46H69.9264C69.9764 98.02 70.1314 98.52 70.3914 98.96C70.6614 99.39 71.0064 99.735 71.4264 99.995C71.8564 100.245 72.3214 100.37 72.8214 100.37C73.3314 100.37 73.8114 100.24 74.2614 99.98C74.7214 99.72 75.0414 99.38 75.2214 98.96L76.1064 99.2C75.9464 99.57 75.7014 99.905 75.3714 100.205C75.0414 100.505 74.6514 100.74 74.2014 100.91C73.7614 101.07 73.2864 101.15 72.7764 101.15ZM69.8964 96.725H75.6714C75.6314 96.155 75.4764 95.655 75.2064 95.225C74.9464 94.795 74.6014 94.46 74.1714 94.22C73.7514 93.97 73.2864 93.845 72.7764 93.845C72.2664 93.845 71.8014 93.97 71.3814 94.22C70.9614 94.46 70.6164 94.8 70.3464 95.24C70.0864 95.67 69.9364 96.165 69.8964 96.725ZM82.1951 101.15C81.5451 101.15 80.9601 100.98 80.4401 100.64C79.9301 100.3 79.5251 99.88 79.2251 99.38V104.195H78.2051V93.185H79.1201V94.7C79.4301 94.21 79.8451 93.815 80.3651 93.515C80.8851 93.205 81.4401 93.05 82.0301 93.05C82.5701 93.05 83.0651 93.165 83.5151 93.395C83.9651 93.615 84.3551 93.915 84.6851 94.295C85.0151 94.675 85.2701 95.11 85.4501 95.6C85.6401 96.08 85.7351 96.58 85.7351 97.1C85.7351 97.83 85.5851 98.505 85.2851 99.125C84.9951 99.735 84.5851 100.225 84.0551 100.595C83.5251 100.965 82.9051 101.15 82.1951 101.15ZM81.9101 100.25C82.3401 100.25 82.7251 100.165 83.0651 99.995C83.4051 99.815 83.6951 99.575 83.9351 99.275C84.1851 98.975 84.3751 98.64 84.5051 98.27C84.6351 97.89 84.7001 97.5 84.7001 97.1C84.7001 96.68 84.6251 96.28 84.4751 95.9C84.3351 95.52 84.1301 95.185 83.8601 94.895C83.5901 94.605 83.2801 94.375 82.9301 94.205C82.5801 94.035 82.2001 93.95 81.7901 93.95C81.5301 93.95 81.2601 94 80.9801 94.1C80.7001 94.2 80.4301 94.345 80.1701 94.535C79.9201 94.715 79.7101 94.92 79.5401 95.15C79.3701 95.38 79.2651 95.625 79.2251 95.885V98.285C79.3851 98.655 79.6001 98.99 79.8701 99.29C80.1401 99.58 80.4501 99.815 80.8001 99.995C81.1601 100.165 81.5301 100.25 81.9101 100.25Z" fill="white"/>
<defs>
<clipPath id="clip0_119_3061">
<rect width="48" height="48" fill="white" transform="translate(36 24)"/>
</clipPath>
</defs>
</svg>
