<svg width="120" height="131" viewBox="0 0 120 131" fill="none" xmlns="http://www.w3.org/2000/svg">
<g clip-path="url(#clip0_119_3072)">
<path d="M59.9995 25.5995C64.4704 25.5995 68.841 26.9133 72.5584 29.3746C76.2759 31.836 79.1733 35.3344 80.8843 39.4274C82.5952 43.5205 83.0429 48.0244 82.1706 52.3695C81.2984 56.7147 79.1455 60.706 75.984 63.8387C71.7447 68.0395 65.9949 70.3995 59.9995 70.3995C54.0042 70.3996 48.2544 68.0396 44.015 63.8388C39.7756 59.6379 37.394 53.9404 37.394 47.9996C37.394 42.0587 39.7756 36.3612 44.015 32.1604C46.1092 30.0738 48.6003 28.4196 51.344 27.2934C54.0878 26.1672 57.0297 25.5915 59.9995 25.5995ZM59.9995 23.9995C55.2092 23.9995 50.5265 25.4071 46.5435 28.0442C42.5605 30.6814 39.4561 34.4297 37.623 38.8151C35.7898 43.2005 35.3102 48.0261 36.2447 52.6817C37.1792 57.3372 39.486 61.6136 42.8732 64.9701C46.2605 68.3265 50.5761 70.6123 55.2744 71.5383C59.9726 72.4644 64.8425 71.9891 69.2682 70.1726C73.6938 68.3561 77.4765 65.28 80.1378 61.3332C82.7992 57.3864 84.2197 52.7463 84.2197 47.9995C84.2197 41.6343 81.6679 35.5298 77.1257 31.029C72.5836 26.5281 66.4231 23.9995 59.9995 23.9995Z" fill="#F04451"/>
<path d="M59.9984 51.5902C60.67 51.591 61.3352 51.4597 61.9552 51.2039C62.5753 50.948 63.1379 50.5728 63.6105 50.0998C64.0831 49.6269 64.4562 49.0657 64.7083 48.4488C64.9603 47.8318 65.0862 47.1715 65.0788 46.506V37.9538C65.0848 37.2886 64.9578 36.6288 64.705 36.0125C64.4522 35.3963 64.0788 34.8357 63.6062 34.3633C63.1335 33.8909 62.5711 33.5159 61.9515 33.2601C61.3318 33.0043 60.6671 32.8726 59.9957 32.8728C59.3244 32.873 58.6598 33.0049 58.0402 33.2611C57.4207 33.5172 56.8585 33.8925 56.3861 34.3651C55.9137 34.8378 55.5405 35.3985 55.2881 36.0149C55.0357 36.6313 54.909 37.2912 54.9153 37.9564V46.5085C54.9079 47.1741 55.034 47.8346 55.2863 48.4515C55.5385 49.0684 55.9119 49.6295 56.3848 50.1023C56.8577 50.575 57.4206 50.95 58.041 51.2054C58.6613 51.4608 59.3266 51.5916 59.9984 51.5902ZM55.7545 39.1659V38.0745C55.7545 36.9587 56.2018 35.8886 56.998 35.0996C57.7942 34.3106 58.8741 33.8674 60.0002 33.8674C61.1262 33.8674 62.2061 34.3106 63.0023 35.0996C63.7986 35.8886 64.2459 36.9587 64.2459 38.0745V39.176C64.2459 39.3881 64.1608 39.5916 64.0094 39.7416C63.858 39.8917 63.6527 39.976 63.4385 39.976C63.2244 39.976 63.0191 39.8917 62.8677 39.7416C62.7163 39.5916 62.6312 39.3881 62.6312 39.176V38.0745C62.6312 37.383 62.354 36.7199 61.8606 36.231C61.3672 35.742 60.698 35.4674 60.0002 35.4674C59.3024 35.4674 58.6332 35.742 58.1397 36.231C57.6463 36.7199 57.3691 37.383 57.3691 38.0745V39.1659C57.3691 39.3781 57.2841 39.5815 57.1327 39.7316C56.9813 39.8816 56.7759 39.9659 56.5618 39.9659C56.3477 39.9659 56.1423 39.8816 55.9909 39.7316C55.8395 39.5815 55.7545 39.3781 55.7545 39.1659Z" fill="#F04451"/>
<path d="M70.3929 42.0397C70.136 42.0397 69.8896 42.1408 69.7079 42.3208C69.5262 42.5009 69.4241 42.7451 69.4241 42.9997V46.2992C69.4211 48.409 68.6984 50.4558 67.3733 52.1072C66.0482 53.7586 64.1986 54.9176 62.1249 55.396V54.7348C62.1249 54.1761 61.901 53.6403 61.5023 53.2452C61.1036 52.8501 60.5628 52.6282 59.999 52.6282C59.4351 52.6282 58.8944 52.8501 58.4957 53.2452C58.097 53.6403 57.873 54.1761 57.873 54.7348V55.396C55.7993 54.9176 53.9498 53.7586 52.6247 52.1072C51.2996 50.4558 50.5769 48.409 50.5738 46.2992V42.9693C50.5738 42.7147 50.4718 42.4705 50.2901 42.2905C50.1084 42.1104 49.862 42.0093 49.605 42.0093C49.3481 42.0093 49.1017 42.1104 48.92 42.2905C48.7383 42.4705 48.6362 42.7147 48.6362 42.9693V46.2992C48.6399 48.9187 49.5638 51.4552 51.2493 53.4732C52.9348 55.4912 55.2768 56.8648 57.873 57.358V61.4534H54.4352C54.1783 61.4534 53.9318 61.5546 53.7502 61.7346C53.5685 61.9146 53.4664 62.1588 53.4664 62.4134C53.4664 62.668 53.5685 62.9122 53.7502 63.0923C53.9318 63.2723 54.1783 63.3734 54.4352 63.3734H65.5628C65.8197 63.3734 66.0661 63.2723 66.2478 63.0923C66.4295 62.9122 66.5316 62.668 66.5316 62.4134C66.5316 62.1588 66.4295 61.9146 66.2478 61.7346C66.0661 61.5546 65.8197 61.4534 65.5628 61.4534H62.1249V57.358C64.7212 56.8648 67.0631 55.4912 68.7486 53.4732C70.4341 51.4552 71.3581 48.9187 71.3617 46.2992V42.9997C71.3617 42.7451 71.2596 42.5009 71.078 42.3209C70.8963 42.1408 70.6499 42.0397 70.3929 42.0397Z" fill="#F04451"/>
</g>
<path d="M12.8194 101V90.35H13.8694V95.09H15.4744L19.1344 90.35H20.3494L16.3444 95.51L20.6044 101H19.3144L15.5044 96.05H13.8694V101H12.8194ZM24.9775 101.15C24.4175 101.15 23.8975 101.045 23.4175 100.835C22.9475 100.615 22.5375 100.32 22.1875 99.95C21.8475 99.57 21.5825 99.14 21.3925 98.66C21.2025 98.17 21.1075 97.655 21.1075 97.115C21.1075 96.555 21.2025 96.035 21.3925 95.555C21.5825 95.065 21.8525 94.635 22.2025 94.265C22.5525 93.885 22.9625 93.59 23.4325 93.38C23.9125 93.16 24.4325 93.05 24.9925 93.05C25.5525 93.05 26.0675 93.16 26.5375 93.38C27.0075 93.59 27.4175 93.885 27.7675 94.265C28.1175 94.635 28.3875 95.065 28.5775 95.555C28.7675 96.035 28.8625 96.555 28.8625 97.115C28.8625 97.655 28.7675 98.17 28.5775 98.66C28.3875 99.14 28.1175 99.57 27.7675 99.95C27.4275 100.32 27.0175 100.615 26.5375 100.835C26.0675 101.045 25.5475 101.15 24.9775 101.15ZM22.1425 97.13C22.1425 97.71 22.2675 98.24 22.5175 98.72C22.7775 99.19 23.1225 99.565 23.5525 99.845C23.9825 100.115 24.4575 100.25 24.9775 100.25C25.4975 100.25 25.9725 100.11 26.4025 99.83C26.8325 99.55 27.1775 99.17 27.4375 98.69C27.6975 98.2 27.8275 97.67 27.8275 97.1C27.8275 96.52 27.6975 95.99 27.4375 95.51C27.1775 95.03 26.8325 94.65 26.4025 94.37C25.9725 94.09 25.4975 93.95 24.9775 93.95C24.4575 93.95 23.9825 94.095 23.5525 94.385C23.1325 94.675 22.7925 95.06 22.5325 95.54C22.2725 96.01 22.1425 96.54 22.1425 97.13ZM30.5534 101V93.185H31.6034L34.7084 98.57L37.8284 93.185H38.8334V101H37.8584V94.715L35.0384 99.605H34.3784L31.5284 94.715V101H30.5534ZM41.0709 101V93.185H42.1209L45.2259 98.57L48.3459 93.185H49.3509V101H48.3759V94.715L45.5559 99.605H44.8959L42.0459 94.715V101H41.0709ZM54.9785 101.15C54.4185 101.15 53.8985 101.045 53.4185 100.835C52.9385 100.615 52.5235 100.32 52.1735 99.95C51.8235 99.57 51.5485 99.135 51.3485 98.645C51.1585 98.155 51.0635 97.63 51.0635 97.07C51.0635 96.34 51.2285 95.67 51.5585 95.06C51.8985 94.45 52.3635 93.965 52.9535 93.605C53.5435 93.235 54.2135 93.05 54.9635 93.05C55.7335 93.05 56.4035 93.235 56.9735 93.605C57.5535 93.975 58.0085 94.465 58.3385 95.075C58.6685 95.675 58.8335 96.335 58.8335 97.055C58.8335 97.135 58.8335 97.215 58.8335 97.295C58.8335 97.365 58.8285 97.42 58.8185 97.46H52.1285C52.1785 98.02 52.3335 98.52 52.5935 98.96C52.8635 99.39 53.2085 99.735 53.6285 99.995C54.0585 100.245 54.5235 100.37 55.0235 100.37C55.5335 100.37 56.0135 100.24 56.4635 99.98C56.9235 99.72 57.2435 99.38 57.4235 98.96L58.3085 99.2C58.1485 99.57 57.9035 99.905 57.5735 100.205C57.2435 100.505 56.8535 100.74 56.4035 100.91C55.9635 101.07 55.4885 101.15 54.9785 101.15ZM52.0985 96.725H57.8735C57.8335 96.155 57.6785 95.655 57.4085 95.225C57.1485 94.795 56.8035 94.46 56.3735 94.22C55.9535 93.97 55.4885 93.845 54.9785 93.845C54.4685 93.845 54.0035 93.97 53.5835 94.22C53.1635 94.46 52.8185 94.8 52.5485 95.24C52.2885 95.67 52.1385 96.165 52.0985 96.725ZM60.3922 101V93.185H61.4122V96.545H65.8822V93.185H66.9022V101H65.8822V97.46H61.4122V101H60.3922ZM71.1023 101V94.1H68.3123V93.185H74.9123V94.1H72.1223V101H71.1023ZM75.6268 98.75C75.6268 98.26 75.7668 97.84 76.0468 97.49C76.3268 97.13 76.7118 96.855 77.2018 96.665C77.7018 96.465 78.2768 96.365 78.9268 96.365C79.3068 96.365 79.7018 96.395 80.1118 96.455C80.5218 96.515 80.8868 96.605 81.2068 96.725V96.065C81.2068 95.405 81.0118 94.88 80.6218 94.49C80.2318 94.1 79.6918 93.905 79.0018 93.905C78.5818 93.905 78.1668 93.985 77.7568 94.145C77.3568 94.295 76.9368 94.52 76.4968 94.82L76.1068 94.1C76.6168 93.75 77.1168 93.49 77.6068 93.32C78.0968 93.14 78.5968 93.05 79.1068 93.05C80.0668 93.05 80.8268 93.325 81.3868 93.875C81.9468 94.425 82.2268 95.185 82.2268 96.155V99.77C82.2268 99.91 82.2568 100.015 82.3168 100.085C82.3768 100.145 82.4718 100.18 82.6018 100.19V101C82.4918 101.01 82.3968 101.02 82.3168 101.03C82.2368 101.04 82.1768 101.04 82.1368 101.03C81.8868 101.02 81.6968 100.94 81.5668 100.79C81.4368 100.64 81.3668 100.48 81.3568 100.31L81.3418 99.74C80.9918 100.19 80.5368 100.54 79.9768 100.79C79.4168 101.03 78.8468 101.15 78.2668 101.15C77.7668 101.15 77.3118 101.045 76.9018 100.835C76.5018 100.615 76.1868 100.325 75.9568 99.965C75.7368 99.595 75.6268 99.19 75.6268 98.75ZM80.8618 99.35C80.9718 99.21 81.0568 99.075 81.1168 98.945C81.1768 98.815 81.2068 98.7 81.2068 98.6V97.46C80.8668 97.33 80.5118 97.23 80.1418 97.16C79.7818 97.09 79.4168 97.055 79.0468 97.055C78.3168 97.055 77.7268 97.2 77.2768 97.49C76.8268 97.78 76.6018 98.175 76.6018 98.675C76.6018 98.965 76.6768 99.24 76.8268 99.5C76.9768 99.75 77.1968 99.96 77.4868 100.13C77.7768 100.29 78.1168 100.37 78.5068 100.37C78.9968 100.37 79.4518 100.275 79.8718 100.085C80.3018 99.895 80.6318 99.65 80.8618 99.35ZM86.2635 101V94.1H83.4735V93.185H90.0735V94.1H87.2835V101H86.2635ZM94.7919 101.15C94.2319 101.15 93.7119 101.045 93.2319 100.835C92.7619 100.615 92.3519 100.32 92.0019 99.95C91.6619 99.57 91.3969 99.14 91.2069 98.66C91.0169 98.17 90.9219 97.655 90.9219 97.115C90.9219 96.555 91.0169 96.035 91.2069 95.555C91.3969 95.065 91.6669 94.635 92.0169 94.265C92.3669 93.885 92.7769 93.59 93.2469 93.38C93.7269 93.16 94.2469 93.05 94.8069 93.05C95.3669 93.05 95.8819 93.16 96.3519 93.38C96.8219 93.59 97.2319 93.885 97.5819 94.265C97.9319 94.635 98.2019 95.065 98.3919 95.555C98.5819 96.035 98.6769 96.555 98.6769 97.115C98.6769 97.655 98.5819 98.17 98.3919 98.66C98.2019 99.14 97.9319 99.57 97.5819 99.95C97.2419 100.32 96.8319 100.615 96.3519 100.835C95.8819 101.045 95.3619 101.15 94.7919 101.15ZM91.9569 97.13C91.9569 97.71 92.0819 98.24 92.3319 98.72C92.5919 99.19 92.9369 99.565 93.3669 99.845C93.7969 100.115 94.2719 100.25 94.7919 100.25C95.3119 100.25 95.7869 100.11 96.2169 99.83C96.6469 99.55 96.9919 99.17 97.2519 98.69C97.5119 98.2 97.6419 97.67 97.6419 97.1C97.6419 96.52 97.5119 95.99 97.2519 95.51C96.9919 95.03 96.6469 94.65 96.2169 94.37C95.7869 94.09 95.3119 93.95 94.7919 93.95C94.2719 93.95 93.7969 94.095 93.3669 94.385C92.9469 94.675 92.6069 95.06 92.3469 95.54C92.0869 96.01 91.9569 96.54 91.9569 97.13ZM104.373 101.15C103.723 101.15 103.138 100.98 102.618 100.64C102.108 100.3 101.703 99.88 101.403 99.38V104.195H100.383V93.185H101.298V94.7C101.608 94.21 102.023 93.815 102.543 93.515C103.063 93.205 103.618 93.05 104.208 93.05C104.748 93.05 105.243 93.165 105.693 93.395C106.143 93.615 106.533 93.915 106.863 94.295C107.193 94.675 107.448 95.11 107.628 95.6C107.818 96.08 107.913 96.58 107.913 97.1C107.913 97.83 107.763 98.505 107.463 99.125C107.173 99.735 106.763 100.225 106.233 100.595C105.703 100.965 105.083 101.15 104.373 101.15ZM104.088 100.25C104.518 100.25 104.903 100.165 105.243 99.995C105.583 99.815 105.873 99.575 106.113 99.275C106.363 98.975 106.553 98.64 106.683 98.27C106.813 97.89 106.878 97.5 106.878 97.1C106.878 96.68 106.803 96.28 106.653 95.9C106.513 95.52 106.308 95.185 106.038 94.895C105.768 94.605 105.458 94.375 105.108 94.205C104.758 94.035 104.378 93.95 103.968 93.95C103.708 93.95 103.438 94 103.158 94.1C102.878 94.2 102.608 94.345 102.348 94.535C102.098 94.715 101.888 94.92 101.718 95.15C101.548 95.38 101.443 95.625 101.403 95.885V98.285C101.563 98.655 101.778 98.99 102.048 99.29C102.318 99.58 102.628 99.815 102.978 99.995C103.338 100.165 103.708 100.25 104.088 100.25Z" fill="white"/>
<defs>
<clipPath id="clip0_119_3072">
<rect width="48.4404" height="48" fill="white" transform="translate(35.7798 24)"/>
</clipPath>
</defs>
</svg>
