<svg width="120" height="131" viewBox="0 0 120 131" fill="none" xmlns="http://www.w3.org/2000/svg">
<g clip-path="url(#clip0_119_3065)">
<path d="M60.0005 25.5988C64.4308 25.5988 68.7616 26.9125 72.4453 29.3739C76.1289 31.8352 79 35.3336 80.6954 39.4267C82.3908 43.5197 82.8344 48.0236 81.9701 52.3688C81.1058 56.714 78.9724 60.7053 75.8397 63.838C71.6389 68.0388 65.9414 70.3988 60.0005 70.3988C54.0597 70.3988 48.3621 68.0388 44.1613 63.838C39.9605 59.6372 37.6005 53.9397 37.6005 47.9988C37.6005 42.058 39.9605 36.3605 44.1613 32.1596C46.2365 30.0731 48.7049 28.4188 51.4237 27.2926C54.1425 26.1665 57.0577 25.5907 60.0005 25.5988ZM60.0005 23.9988C55.2537 23.9988 50.6136 25.4064 46.6668 28.0435C42.72 30.6807 39.6439 34.4289 37.8274 38.8144C36.0109 43.1998 35.5356 48.0254 36.4617 52.6809C37.3877 57.3365 39.6735 61.6129 43.0299 64.9693C46.3864 68.3258 50.6628 70.6116 55.3183 71.5376C59.9739 72.4637 64.7995 71.9884 69.1849 70.1719C73.5703 68.3554 77.3186 65.2792 79.9558 61.3325C82.5929 57.3857 84.0005 52.7455 84.0005 47.9988C84.0005 41.6336 81.4719 35.5291 76.971 31.0282C72.4702 26.5274 66.3657 23.9988 60.0005 23.9988Z" fill="white" fill-opacity="0.5"/>
<path d="M69.9225 53.7983C69.8938 52.8822 69.7667 51.9718 69.5434 51.0829C69.2123 49.7773 68.5785 48.568 67.6932 47.5528L67.478 47.3017C67.4017 47.2198 67.3402 47.1327 67.2634 47.0558C66.5133 46.2818 65.6576 45.6178 64.7217 45.0832L63.0569 45.6181L62.0145 45.9529L60.9459 46.2963C60.8968 46.3121 60.8469 46.3248 60.797 46.3378C61.1681 46.3542 61.3948 46.6506 61.2076 46.8914L60.701 47.543C60.6736 47.5762 60.654 47.6152 60.6436 47.657C60.6332 47.6988 60.6323 47.7424 60.6409 47.7846L62.8159 57.8186L62.0212 58.2557L60.5029 59.0909L59.8899 59.428L59.2769 59.0909L57.7585 58.2557L56.9639 57.8186L59.1387 47.7846C59.1474 47.7424 59.1465 47.6988 59.1361 47.657C59.1257 47.6152 59.1061 47.5763 59.0787 47.543L58.5722 46.8914C58.3796 46.6436 58.6245 46.3362 59.0145 46.3362H59.1783C59.1201 46.3209 59.0619 46.3049 59.0045 46.2857L57.9818 45.9432L56.989 45.6107L55.3868 45.074C55.3669 45.0666 55.3475 45.0579 55.3287 45.0479C51.9405 46.9517 50.1573 49.8714 50.0583 53.8444C50.0173 55.5762 50.0583 57.3079 50.0583 59.0447C50.0583 59.8184 50.3811 60.1565 51.1496 60.1565H68.8517C69.6202 60.1565 69.943 59.8184 69.943 59.0447C69.9532 57.2925 69.9839 55.5454 69.9225 53.7983Z" fill="white" fill-opacity="0.5"/>
<path d="M53.7375 40.0264C53.7349 40.0537 53.7349 40.0811 53.7375 40.1084C53.7928 40.6336 53.9131 41.1499 54.0956 41.6454C54.2288 41.9837 54.3918 42.3095 54.5828 42.6189C54.937 43.2486 55.4084 43.8048 55.9715 44.2575L58.6298 45.1478L59.3094 45.3753C59.4925 45.4368 59.6844 45.4681 59.8775 45.468H60.1051C60.2908 45.4681 60.4754 45.4391 60.6522 45.3822L61.3901 45.1452L63.9361 44.3273C64.8113 43.6558 65.4767 42.7485 65.8544 41.7121C65.8544 41.7121 66.0051 41.2049 66.0644 40.9947C66.4273 39.8217 66.4219 38.5657 66.049 37.3958C65.676 36.226 64.9535 35.1986 63.9787 34.4521C62.8899 33.545 61.5263 33.033 60.1096 32.9996C58.6929 32.9661 57.3066 33.413 56.1762 34.2677C55.2407 34.9557 54.528 35.9036 54.1268 36.9934C53.9183 37.4835 53.782 38.0012 53.7221 38.5304V38.5714C53.691 38.8434 53.6825 39.1176 53.6965 39.3911C53.6973 39.6035 53.711 39.8157 53.7375 40.0264Z" fill="white" fill-opacity="0.5"/>
</g>
<path opacity="0.5" d="M19.2993 101.075C18.5493 101.075 17.8693 100.925 17.2593 100.625C16.6493 100.325 16.1243 99.92 15.6843 99.41C15.2443 98.89 14.9043 98.31 14.6643 97.67C14.4243 97.02 14.3043 96.355 14.3043 95.675C14.3043 94.965 14.4293 94.29 14.6793 93.65C14.9293 93 15.2793 92.425 15.7293 91.925C16.1893 91.415 16.7243 91.015 17.3343 90.725C17.9443 90.425 18.6043 90.275 19.3143 90.275C20.0643 90.275 20.7443 90.43 21.3543 90.74C21.9643 91.05 22.4843 91.465 22.9143 91.985C23.3543 92.505 23.6943 93.085 23.9343 93.725C24.1743 94.365 24.2943 95.02 24.2943 95.69C24.2943 96.4 24.1693 97.08 23.9193 97.73C23.6693 98.37 23.3193 98.945 22.8693 99.455C22.4193 99.955 21.8893 100.35 21.2793 100.64C20.6693 100.93 20.0093 101.075 19.2993 101.075ZM15.3543 95.675C15.3543 96.255 15.4493 96.815 15.6393 97.355C15.8293 97.885 16.0993 98.36 16.4493 98.78C16.7993 99.19 17.2143 99.52 17.6943 99.77C18.1843 100.01 18.7193 100.13 19.2993 100.13C19.9093 100.13 20.4543 100.005 20.9343 99.755C21.4243 99.495 21.8393 99.155 22.1793 98.735C22.5293 98.305 22.7943 97.825 22.9743 97.295C23.1543 96.765 23.2443 96.225 23.2443 95.675C23.2443 95.095 23.1493 94.54 22.9593 94.01C22.7693 93.48 22.4943 93.005 22.1343 92.585C21.7843 92.165 21.3693 91.835 20.8893 91.595C20.4093 91.355 19.8793 91.235 19.2993 91.235C18.6993 91.235 18.1543 91.36 17.6643 91.61C17.1843 91.86 16.7693 92.2 16.4193 92.63C16.0793 93.05 15.8143 93.525 15.6243 94.055C15.4443 94.585 15.3543 95.125 15.3543 95.675ZM29.9954 101.15C29.3454 101.15 28.7604 100.98 28.2404 100.64C27.7304 100.3 27.3254 99.88 27.0254 99.38V104.195H26.0054V93.185H26.9204V94.7C27.2304 94.21 27.6454 93.815 28.1654 93.515C28.6854 93.205 29.2404 93.05 29.8304 93.05C30.3704 93.05 30.8654 93.165 31.3154 93.395C31.7654 93.615 32.1554 93.915 32.4854 94.295C32.8154 94.675 33.0704 95.11 33.2504 95.6C33.4404 96.08 33.5354 96.58 33.5354 97.1C33.5354 97.83 33.3854 98.505 33.0854 99.125C32.7954 99.735 32.3854 100.225 31.8554 100.595C31.3254 100.965 30.7054 101.15 29.9954 101.15ZM29.7104 100.25C30.1404 100.25 30.5254 100.165 30.8654 99.995C31.2054 99.815 31.4954 99.575 31.7354 99.275C31.9854 98.975 32.1754 98.64 32.3054 98.27C32.4354 97.89 32.5004 97.5 32.5004 97.1C32.5004 96.68 32.4254 96.28 32.2754 95.9C32.1354 95.52 31.9304 95.185 31.6604 94.895C31.3904 94.605 31.0804 94.375 30.7304 94.205C30.3804 94.035 30.0004 93.95 29.5904 93.95C29.3304 93.95 29.0604 94 28.7804 94.1C28.5004 94.2 28.2304 94.345 27.9704 94.535C27.7204 94.715 27.5104 94.92 27.3404 95.15C27.1704 95.38 27.0654 95.625 27.0254 95.885V98.285C27.1854 98.655 27.4004 98.99 27.6704 99.29C27.9404 99.58 28.2504 99.815 28.6004 99.995C28.9604 100.165 29.3304 100.25 29.7104 100.25ZM35.2482 101V93.185H39.9132V94.1H36.2682V101H35.2482ZM40.7123 98.75C40.7123 98.26 40.8523 97.84 41.1323 97.49C41.4123 97.13 41.7973 96.855 42.2873 96.665C42.7873 96.465 43.3623 96.365 44.0123 96.365C44.3923 96.365 44.7873 96.395 45.1973 96.455C45.6073 96.515 45.9723 96.605 46.2923 96.725V96.065C46.2923 95.405 46.0973 94.88 45.7073 94.49C45.3173 94.1 44.7773 93.905 44.0873 93.905C43.6673 93.905 43.2523 93.985 42.8423 94.145C42.4423 94.295 42.0223 94.52 41.5823 94.82L41.1923 94.1C41.7023 93.75 42.2023 93.49 42.6923 93.32C43.1823 93.14 43.6823 93.05 44.1923 93.05C45.1523 93.05 45.9123 93.325 46.4723 93.875C47.0323 94.425 47.3123 95.185 47.3123 96.155V99.77C47.3123 99.91 47.3423 100.015 47.4023 100.085C47.4623 100.145 47.5573 100.18 47.6873 100.19V101C47.5773 101.01 47.4823 101.02 47.4023 101.03C47.3223 101.04 47.2623 101.04 47.2223 101.03C46.9723 101.02 46.7823 100.94 46.6523 100.79C46.5223 100.64 46.4523 100.48 46.4423 100.31L46.4273 99.74C46.0773 100.19 45.6223 100.54 45.0623 100.79C44.5023 101.03 43.9323 101.15 43.3523 101.15C42.8523 101.15 42.3973 101.045 41.9873 100.835C41.5873 100.615 41.2723 100.325 41.0423 99.965C40.8223 99.595 40.7123 99.19 40.7123 98.75ZM45.9473 99.35C46.0573 99.21 46.1423 99.075 46.2023 98.945C46.2623 98.815 46.2923 98.7 46.2923 98.6V97.46C45.9523 97.33 45.5973 97.23 45.2273 97.16C44.8673 97.09 44.5023 97.055 44.1323 97.055C43.4023 97.055 42.8123 97.2 42.3623 97.49C41.9123 97.78 41.6873 98.175 41.6873 98.675C41.6873 98.965 41.7623 99.24 41.9123 99.5C42.0623 99.75 42.2823 99.96 42.5723 100.13C42.8623 100.29 43.2023 100.37 43.5923 100.37C44.0823 100.37 44.5373 100.275 44.9573 100.085C45.3873 99.895 45.7173 99.65 45.9473 99.35ZM49.5011 101V93.185H50.5211V96.545H54.9911V93.185H56.0111V101H54.9911V97.46H50.5211V101H49.5011ZM58.2462 101V93.2H59.2662V99.62L64.0212 93.185H64.9362V101H63.9162V94.685L59.2362 101H58.2462ZM69.4325 101.09C68.7125 101.09 68.0975 100.955 67.5875 100.685C67.0775 100.405 66.6875 100.015 66.4175 99.515L67.2575 99.14C67.4475 99.49 67.7225 99.765 68.0825 99.965C68.4425 100.155 68.8775 100.25 69.3875 100.25C69.9975 100.25 70.4825 100.11 70.8425 99.83C71.2125 99.55 71.3975 99.175 71.3975 98.705C71.3975 98.275 71.2525 97.93 70.9625 97.67C70.6725 97.41 70.2725 97.275 69.7625 97.265H68.9675V96.56H69.8225C70.0425 96.56 70.2425 96.5 70.4225 96.38C70.6025 96.26 70.7425 96.1 70.8425 95.9C70.9425 95.7 70.9925 95.475 70.9925 95.225C70.9925 94.835 70.8525 94.52 70.5725 94.28C70.3025 94.04 69.9025 93.92 69.3725 93.92C68.9325 93.92 68.5625 94.01 68.2625 94.19C67.9725 94.36 67.7375 94.615 67.5575 94.955L66.7775 94.535C67.0075 94.075 67.3475 93.715 67.7975 93.455C68.2575 93.195 68.7925 93.065 69.4025 93.065C69.9025 93.065 70.3375 93.15 70.7075 93.32C71.0875 93.48 71.3825 93.715 71.5925 94.025C71.8125 94.325 71.9225 94.69 71.9225 95.12C71.9225 95.49 71.8325 95.835 71.6525 96.155C71.4725 96.465 71.2225 96.7 70.9025 96.86C71.3625 97 71.7175 97.245 71.9675 97.595C72.2275 97.945 72.3575 98.355 72.3575 98.825C72.3575 99.295 72.2325 99.7 71.9825 100.04C71.7325 100.38 71.3875 100.64 70.9475 100.82C70.5075 101 70.0025 101.09 69.4325 101.09ZM73.4369 98.75C73.4369 98.26 73.5769 97.84 73.8569 97.49C74.1369 97.13 74.5219 96.855 75.0119 96.665C75.5119 96.465 76.0869 96.365 76.7369 96.365C77.1169 96.365 77.5119 96.395 77.9219 96.455C78.3319 96.515 78.6969 96.605 79.0169 96.725V96.065C79.0169 95.405 78.8219 94.88 78.4319 94.49C78.0419 94.1 77.5019 93.905 76.8119 93.905C76.3919 93.905 75.9769 93.985 75.5669 94.145C75.1669 94.295 74.7469 94.52 74.3069 94.82L73.9169 94.1C74.4269 93.75 74.9269 93.49 75.4169 93.32C75.9069 93.14 76.4069 93.05 76.9169 93.05C77.8769 93.05 78.6369 93.325 79.1969 93.875C79.7569 94.425 80.0369 95.185 80.0369 96.155V99.77C80.0369 99.91 80.0669 100.015 80.1269 100.085C80.1869 100.145 80.2819 100.18 80.4119 100.19V101C80.3019 101.01 80.2069 101.02 80.1269 101.03C80.0469 101.04 79.9869 101.04 79.9469 101.03C79.6969 101.02 79.5069 100.94 79.3769 100.79C79.2469 100.64 79.1769 100.48 79.1669 100.31L79.1519 99.74C78.8019 100.19 78.3469 100.54 77.7869 100.79C77.2269 101.03 76.6569 101.15 76.0769 101.15C75.5769 101.15 75.1219 101.045 74.7119 100.835C74.3119 100.615 73.9969 100.325 73.7669 99.965C73.5469 99.595 73.4369 99.19 73.4369 98.75ZM78.6719 99.35C78.7819 99.21 78.8669 99.075 78.9269 98.945C78.9869 98.815 79.0169 98.7 79.0169 98.6V97.46C78.6769 97.33 78.3219 97.23 77.9519 97.16C77.5919 97.09 77.2269 97.055 76.8569 97.055C76.1269 97.055 75.5369 97.2 75.0869 97.49C74.6369 97.78 74.4119 98.175 74.4119 98.675C74.4119 98.965 74.4869 99.24 74.6369 99.5C74.7869 99.75 75.0069 99.96 75.2969 100.13C75.5869 100.29 75.9269 100.37 76.3169 100.37C76.8069 100.37 77.2619 100.275 77.6819 100.085C78.1119 99.895 78.4419 99.65 78.6719 99.35ZM84.0735 101V94.1H81.2835V93.185H87.8835V94.1H85.0935V101H84.0735ZM92.602 101.15C92.042 101.15 91.522 101.045 91.042 100.835C90.572 100.615 90.162 100.32 89.812 99.95C89.472 99.57 89.207 99.14 89.017 98.66C88.827 98.17 88.732 97.655 88.732 97.115C88.732 96.555 88.827 96.035 89.017 95.555C89.207 95.065 89.477 94.635 89.827 94.265C90.177 93.885 90.587 93.59 91.057 93.38C91.537 93.16 92.057 93.05 92.617 93.05C93.177 93.05 93.692 93.16 94.162 93.38C94.632 93.59 95.042 93.885 95.392 94.265C95.742 94.635 96.012 95.065 96.202 95.555C96.392 96.035 96.487 96.555 96.487 97.115C96.487 97.655 96.392 98.17 96.202 98.66C96.012 99.14 95.742 99.57 95.392 99.95C95.052 100.32 94.642 100.615 94.162 100.835C93.692 101.045 93.172 101.15 92.602 101.15ZM89.767 97.13C89.767 97.71 89.892 98.24 90.142 98.72C90.402 99.19 90.747 99.565 91.177 99.845C91.607 100.115 92.082 100.25 92.602 100.25C93.122 100.25 93.597 100.11 94.027 99.83C94.457 99.55 94.802 99.17 95.062 98.69C95.322 98.2 95.452 97.67 95.452 97.1C95.452 96.52 95.322 95.99 95.062 95.51C94.802 95.03 94.457 94.65 94.027 94.37C93.597 94.09 93.122 93.95 92.602 93.95C92.082 93.95 91.607 94.095 91.177 94.385C90.757 94.675 90.417 95.06 90.157 95.54C89.897 96.01 89.767 96.54 89.767 97.13ZM102.183 101.15C101.533 101.15 100.948 100.98 100.428 100.64C99.9179 100.3 99.5129 99.88 99.2129 99.38V104.195H98.1929V93.185H99.1079V94.7C99.4179 94.21 99.8329 93.815 100.353 93.515C100.873 93.205 101.428 93.05 102.018 93.05C102.558 93.05 103.053 93.165 103.503 93.395C103.953 93.615 104.343 93.915 104.673 94.295C105.003 94.675 105.258 95.11 105.438 95.6C105.628 96.08 105.723 96.58 105.723 97.1C105.723 97.83 105.573 98.505 105.273 99.125C104.983 99.735 104.573 100.225 104.043 100.595C103.513 100.965 102.893 101.15 102.183 101.15ZM101.898 100.25C102.328 100.25 102.713 100.165 103.053 99.995C103.393 99.815 103.683 99.575 103.923 99.275C104.173 98.975 104.363 98.64 104.493 98.27C104.623 97.89 104.688 97.5 104.688 97.1C104.688 96.68 104.613 96.28 104.463 95.9C104.323 95.52 104.118 95.185 103.848 94.895C103.578 94.605 103.268 94.375 102.918 94.205C102.568 94.035 102.188 93.95 101.778 93.95C101.518 93.95 101.248 94 100.968 94.1C100.688 94.2 100.418 94.345 100.158 94.535C99.9079 94.715 99.6979 94.92 99.5279 95.15C99.3579 95.38 99.2529 95.625 99.2129 95.885V98.285C99.3729 98.655 99.5879 98.99 99.8579 99.29C100.128 99.58 100.438 99.815 100.788 99.995C101.148 100.165 101.518 100.25 101.898 100.25Z" fill="white"/>
<defs>
<clipPath id="clip0_119_3065">
<rect width="48" height="48" fill="white" transform="translate(36 24)"/>
</clipPath>
</defs>
</svg>
