<svg width="120" height="131" viewBox="0 0 120 131" fill="none" xmlns="http://www.w3.org/2000/svg">
<g clip-path="url(#clip0_119_3073)">
<path d="M60 25.5998C64.4709 25.5998 68.8415 26.9135 72.5589 29.3749C76.2764 31.8362 79.1738 35.3346 80.8847 39.4277C82.5957 43.5207 83.0434 48.0246 82.1711 52.3698C81.2989 56.715 79.1459 60.7063 75.9845 63.839C71.7452 68.0398 65.9954 70.3998 60 70.3998C54.0047 70.3998 48.2548 68.0398 44.0155 63.839C39.7761 59.6382 37.3945 53.9407 37.3945 47.9998C37.3945 42.059 39.7761 36.3614 44.0154 32.1606C46.1097 30.074 48.6008 28.4198 51.3445 27.2936C54.0883 26.1674 57.0302 25.5917 60 25.5998ZM60 23.9998C55.2097 23.9998 50.527 25.4073 46.544 28.0445C42.561 30.6816 39.4566 34.4299 37.6234 38.8154C35.7903 43.2008 35.3106 48.0264 36.2452 52.6819C37.1797 57.3375 39.4865 61.6139 42.8737 64.9703C46.261 68.3268 50.5766 70.6126 55.2749 71.5386C59.9731 72.4647 64.843 71.9894 69.2686 70.1729C73.6943 68.3564 77.477 65.2802 80.1383 61.3334C82.7997 57.3867 84.2202 52.7465 84.2202 47.9998C84.2201 41.6346 81.6684 35.5301 77.1262 31.0292C72.5841 26.5283 66.4236 23.9998 60 23.9998Z" fill="white" fill-opacity="0.5"/>
<path d="M68.4816 35.8728C68.3856 35.4889 68.274 35.1087 68.1406 34.6187C68.0207 34.8292 67.949 34.931 67.901 35.0426C66.908 37.3537 65.917 39.6659 64.9278 41.979C63.5622 45.1654 62.1971 48.3524 60.8324 51.5402C60.4726 52.384 59.8588 52.9053 58.9449 53.0141C57.0904 53.2351 55.8248 51.4619 56.577 49.702C58.8924 44.2897 61.2116 38.8795 63.5347 33.4712C63.6136 33.2858 63.6937 33.0999 63.7825 32.8931C63.6716 32.8812 63.6346 32.8653 63.6113 32.8768C63.4805 32.9391 63.3492 33.0031 63.2239 33.0764C61.0449 34.3572 58.7295 35.2225 56.1791 35.374C55.7563 35.3991 55.6211 35.654 55.5532 36.0358C55.0278 38.9994 54.5427 41.9719 53.9371 44.9192C52.9856 49.5565 51.4965 54.0352 49.6691 58.4028C49.6074 58.5216 49.5802 58.6551 49.5905 58.7883C49.6007 58.9215 49.648 59.0493 49.7271 59.1576C51.6218 62.1333 55.3358 63.698 58.782 62.9351C58.8908 62.9027 58.9918 62.8487 59.0789 62.7764C59.166 62.7041 59.2374 62.615 59.2887 62.5145C61.0708 58.48 63.1042 54.5739 65.5862 50.9233C67.4611 48.1641 69.4812 45.5012 71.4576 42.8109C71.7568 42.404 71.7281 42.1169 71.4228 41.7477C70.009 40.0335 69.0037 38.0254 68.4816 35.8728Z" fill="white" fill-opacity="0.5"/>
<path d="M53.3515 40.9803C51.9032 44.3607 50.4548 47.7416 49.0061 51.1228C48.4628 52.371 48.2422 53.7339 48.3643 55.0879C48.4255 55.7945 48.606 56.4906 48.7335 57.1913C48.7942 57.1896 48.8555 57.188 48.9162 57.1863C51.1075 51.8562 52.6587 46.2892 53.538 40.6001C53.4757 40.7265 53.4072 40.8506 53.3515 40.9803Z" fill="white" fill-opacity="0.5"/>
<path d="M60.8722 62.2337C60.9327 62.2106 60.9917 62.184 61.0488 62.1538C62.8685 61.2515 64.3007 59.7316 65.0846 57.8709C65.9478 55.872 66.8059 53.8704 67.6588 51.8664C68.2935 50.3849 68.9284 48.9034 69.5635 47.4221C66.0184 51.9877 63.0441 56.9618 60.7056 62.2359C60.761 62.2411 60.8169 62.2404 60.8722 62.2337Z" fill="white" fill-opacity="0.5"/>
<path d="M63.9151 38.4966C63.2573 38.2112 62.6595 38.4747 62.3273 39.23C61.7317 40.5847 61.1465 41.944 60.5715 43.3078C60.5048 43.4504 60.4676 43.6047 60.4621 43.7618C60.4567 43.9188 60.483 44.0753 60.5397 44.2221C60.5963 44.3689 60.6821 44.5029 60.792 44.6162C60.9018 44.7295 61.0335 44.8199 61.1792 44.8819C61.3219 44.9395 61.4747 44.9685 61.6288 44.9674C61.783 44.9662 61.9353 44.9349 62.0772 44.8752C62.219 44.8154 62.3475 44.7285 62.4553 44.6194C62.5631 44.5102 62.6481 44.381 62.7053 44.2392C63.0155 43.5495 63.3036 42.8506 63.6017 42.1555C63.6002 42.1548 63.5987 42.1543 63.5972 42.1538C63.8826 41.4882 64.1751 40.8259 64.451 40.157C64.7695 39.3848 64.5686 38.7799 63.9151 38.4966Z" fill="white" fill-opacity="0.5"/>
<path d="M59.5907 45.5953C58.9427 47.1069 58.2965 48.619 57.6523 50.1314C57.3316 50.8877 57.5485 51.5069 58.2136 51.7847C58.8731 52.0604 59.4687 51.7765 59.7954 51.0212C60.4418 49.5271 61.0849 48.0315 61.725 46.5343C61.7736 46.4037 61.8154 46.2706 61.8503 46.1357C60.7585 46.0421 60.7249 46.0285 59.764 45.2649C59.6928 45.399 59.6337 45.4936 59.5907 45.5953Z" fill="white" fill-opacity="0.5"/>
<path d="M65.3034 38.1039C65.6511 37.2924 65.9762 36.5349 66.3085 35.7582C65.5988 35.4574 64.9226 35.1713 64.2228 34.8755C63.8866 35.6598 63.5615 36.4178 63.2139 37.2294C64.0643 37.196 64.7267 37.5133 65.3034 38.1039Z" fill="white" fill-opacity="0.5"/>
</g>
<path opacity="0.5" d="M39.6714 101V90.35H40.7064V99.56L47.3064 90.35H48.2814V101H47.2464V91.955L40.7214 101H39.6714ZM50.7829 101V93.185H55.4479V94.1H51.8029V101H50.7829ZM60.867 101.15C60.217 101.15 59.632 100.98 59.112 100.64C58.602 100.3 58.197 99.88 57.897 99.38V104.195H56.877V93.185H57.792V94.7C58.102 94.21 58.517 93.815 59.037 93.515C59.557 93.205 60.112 93.05 60.702 93.05C61.242 93.05 61.737 93.165 62.187 93.395C62.637 93.615 63.027 93.915 63.357 94.295C63.687 94.675 63.942 95.11 64.122 95.6C64.312 96.08 64.407 96.58 64.407 97.1C64.407 97.83 64.257 98.505 63.957 99.125C63.667 99.735 63.257 100.225 62.727 100.595C62.197 100.965 61.577 101.15 60.867 101.15ZM60.582 100.25C61.012 100.25 61.397 100.165 61.737 99.995C62.077 99.815 62.367 99.575 62.607 99.275C62.857 98.975 63.047 98.64 63.177 98.27C63.307 97.89 63.372 97.5 63.372 97.1C63.372 96.68 63.297 96.28 63.147 95.9C63.007 95.52 62.802 95.185 62.532 94.895C62.262 94.605 61.952 94.375 61.602 94.205C61.252 94.035 60.872 93.95 60.462 93.95C60.202 93.95 59.932 94 59.652 94.1C59.372 94.2 59.102 94.345 58.842 94.535C58.592 94.715 58.382 94.92 58.212 95.15C58.042 95.38 57.937 95.625 57.897 95.885V98.285C58.057 98.655 58.272 98.99 58.542 99.29C58.812 99.58 59.122 99.815 59.472 99.995C59.832 100.165 60.202 100.25 60.582 100.25ZM69.4648 101.15C68.9048 101.15 68.3848 101.045 67.9048 100.835C67.4348 100.615 67.0248 100.32 66.6748 99.95C66.3348 99.57 66.0698 99.14 65.8798 98.66C65.6898 98.17 65.5948 97.655 65.5948 97.115C65.5948 96.555 65.6898 96.035 65.8798 95.555C66.0698 95.065 66.3398 94.635 66.6898 94.265C67.0398 93.885 67.4498 93.59 67.9198 93.38C68.3998 93.16 68.9198 93.05 69.4798 93.05C70.0398 93.05 70.5548 93.16 71.0248 93.38C71.4948 93.59 71.9048 93.885 72.2548 94.265C72.6048 94.635 72.8748 95.065 73.0648 95.555C73.2548 96.035 73.3498 96.555 73.3498 97.115C73.3498 97.655 73.2548 98.17 73.0648 98.66C72.8748 99.14 72.6048 99.57 72.2548 99.95C71.9148 100.32 71.5048 100.615 71.0248 100.835C70.5548 101.045 70.0348 101.15 69.4648 101.15ZM66.6298 97.13C66.6298 97.71 66.7548 98.24 67.0048 98.72C67.2648 99.19 67.6098 99.565 68.0398 99.845C68.4698 100.115 68.9448 100.25 69.4648 100.25C69.9848 100.25 70.4598 100.11 70.8898 99.83C71.3198 99.55 71.6648 99.17 71.9248 98.69C72.1848 98.2 72.3148 97.67 72.3148 97.1C72.3148 96.52 72.1848 95.99 71.9248 95.51C71.6648 95.03 71.3198 94.65 70.8898 94.37C70.4598 94.09 69.9848 93.95 69.4648 93.95C68.9448 93.95 68.4698 94.095 68.0398 94.385C67.6198 94.675 67.2798 95.06 67.0198 95.54C66.7598 96.01 66.6298 96.54 66.6298 97.13ZM75.0407 101V93.185H76.0607V96.53H77.2307L79.8557 93.185H81.0257L78.0407 96.98L81.4007 101H80.2007L77.2307 97.475H76.0607V101H75.0407Z" fill="white"/>
<defs>
<clipPath id="clip0_119_3073">
<rect width="48.4404" height="48" fill="white" transform="translate(35.7798 24)"/>
</clipPath>
</defs>
</svg>
