<svg width="120" height="131" viewBox="0 0 120 131" fill="none" xmlns="http://www.w3.org/2000/svg">
<g clip-path="url(#clip0_119_3071)">
<path d="M59.9995 25.5988C64.4298 25.5988 68.7606 26.9125 72.4443 29.3739C76.128 31.8352 78.999 35.3336 80.6944 39.4267C82.3898 43.5198 82.8334 48.0236 81.9691 52.3688C81.1048 56.714 78.9714 60.7053 75.8387 63.838C71.6379 68.0388 65.9404 70.3988 59.9995 70.3988C54.0587 70.3988 48.3612 68.0388 44.1603 63.838C39.9595 59.6372 37.5995 53.9397 37.5995 47.9988C37.5995 42.058 39.9595 36.3605 44.1603 32.1596C46.2355 30.0731 48.7039 28.4188 51.4227 27.2926C54.1415 26.1665 57.0567 25.5907 59.9995 25.5988ZM59.9995 23.9988C55.2528 23.9988 50.6126 25.4064 46.6658 28.0435C42.7191 30.6807 39.6429 34.429 37.8264 38.8144C36.0099 43.1998 35.5346 48.0254 36.4607 52.6809C37.3867 57.3365 39.6725 61.6129 43.029 64.9693C46.3854 68.3258 50.6618 70.6116 55.3174 71.5376C59.9729 72.4637 64.7985 71.9884 69.1839 70.1719C73.5694 68.3554 77.3176 65.2792 79.9548 61.3325C82.5919 57.3857 83.9995 52.7455 83.9995 47.9988C83.9995 41.6336 81.4709 35.5291 76.9701 31.0282C72.4692 26.5274 66.3647 23.9988 59.9995 23.9988Z" fill="white" fill-opacity="0.5"/>
<path d="M66.5303 58.8991H62.2256V39.7366L71.8742 37.4021C72.137 37.3385 72.3638 37.1731 72.5047 36.9423C72.6456 36.7115 72.689 36.4342 72.6254 36.1714C72.5618 35.9086 72.3964 35.6818 72.1656 35.5409C71.9348 35.4 71.6575 35.3566 71.3947 35.4202L62.0891 37.6718C61.9324 37.2402 61.6468 36.8673 61.2711 36.6035C60.8953 36.3397 60.4476 36.1977 59.9885 36.1969H59.9884C59.3952 36.1976 58.8265 36.4335 58.4071 36.8529C57.9877 37.2723 57.7518 37.841 57.7511 38.4342V38.7214L48.1025 41.0559C47.9722 41.0872 47.8494 41.1439 47.741 41.2228C47.6326 41.3016 47.5409 41.4011 47.471 41.5154C47.4011 41.6297 47.3544 41.7567 47.3336 41.8891C47.3128 42.0215 47.3184 42.1567 47.3499 42.287C47.3814 42.4172 47.4383 42.54 47.5173 42.6482C47.5963 42.7565 47.6959 42.8481 47.8103 42.9178C47.9247 42.9876 48.0518 43.034 48.1842 43.0546C48.3167 43.0752 48.4518 43.0695 48.582 43.0378L57.7511 40.8193V58.8991H53.4464C53.176 58.8991 52.9167 59.0065 52.7255 59.1977C52.5343 59.3889 52.4269 59.6482 52.4269 59.9186C52.4269 60.189 52.5343 60.4484 52.7255 60.6396C52.9167 60.8308 53.176 60.9382 53.4464 60.9382H66.5303C66.8007 60.9382 67.06 60.8308 67.2512 60.6396C67.4424 60.4484 67.5499 60.189 67.5499 59.9186C67.5499 59.6482 67.4424 59.3889 67.2512 59.1977C67.06 59.0065 66.8007 58.8991 66.5303 58.8991L66.5303 58.8991Z" fill="white" fill-opacity="0.5"/>
<path d="M54.9286 48.6173C54.9665 48.4646 54.9691 48.3052 54.9363 48.1513C54.9036 47.9973 54.8362 47.8529 54.7394 47.7288C54.6426 47.6048 54.5188 47.5043 54.3775 47.4351C54.2361 47.3659 54.0809 47.3297 53.9235 47.3293H45.3656C45.2083 47.3298 45.053 47.3659 44.9117 47.4351C44.7704 47.5043 44.6466 47.6048 44.5498 47.7288C44.453 47.8529 44.3856 47.9974 44.3529 48.1513C44.3201 48.3052 44.3227 48.4646 44.3606 48.6173C44.6494 49.8008 45.3272 50.8531 46.2853 51.6055C47.2434 52.3579 48.4264 52.7668 49.6446 52.7668C50.8628 52.7668 52.0458 52.3579 53.0039 51.6055C53.962 50.8531 54.6398 49.8008 54.9286 48.6173H54.9286Z" fill="white" fill-opacity="0.5"/>
<path d="M74.9938 44.0569H66.4359C66.2786 44.0573 66.1234 44.0935 65.982 44.1627C65.8407 44.2319 65.7169 44.3323 65.6201 44.4564C65.5233 44.5805 65.456 44.7249 65.4232 44.8788C65.3904 45.0327 65.393 45.1921 65.4309 45.3449C65.7197 46.5283 66.3975 47.5806 67.3556 48.333C68.3137 49.0854 69.4967 49.4944 70.7149 49.4944C71.9331 49.4944 73.1161 49.0854 74.0742 48.333C75.0323 47.5806 75.7101 46.5283 75.9989 45.3449C76.0368 45.1921 76.0394 45.0327 76.0066 44.8788C75.9738 44.7249 75.9065 44.5804 75.8097 44.4564C75.7129 44.3323 75.5891 44.2319 75.4478 44.1627C75.3064 44.0935 75.1512 44.0573 74.9938 44.0569Z" fill="white" fill-opacity="0.5"/>
</g>
<path opacity="0.5" d="M39.5289 95.6C39.5289 94.95 39.6389 94.315 39.8589 93.695C40.0889 93.065 40.4189 92.495 40.8489 91.985C41.2789 91.465 41.8089 91.055 42.4389 90.755C43.0689 90.445 43.7839 90.29 44.5839 90.29C45.5339 90.29 46.3439 90.51 47.0139 90.95C47.6939 91.38 48.1939 91.935 48.5139 92.615L47.6889 93.125C47.4589 92.655 47.1689 92.285 46.8189 92.015C46.4689 91.735 46.0939 91.535 45.6939 91.415C45.3039 91.295 44.9139 91.235 44.5239 91.235C43.8839 91.235 43.3189 91.365 42.8289 91.625C42.3389 91.875 41.9239 92.215 41.5839 92.645C41.2539 93.065 41.0039 93.54 40.8339 94.07C40.6639 94.59 40.5789 95.12 40.5789 95.66C40.5789 96.25 40.6789 96.815 40.8789 97.355C41.0789 97.895 41.3589 98.375 41.7189 98.795C42.0789 99.205 42.4989 99.535 42.9789 99.785C43.4689 100.025 43.9989 100.145 44.5689 100.145C44.9689 100.145 45.3789 100.075 45.7989 99.935C46.2189 99.795 46.6089 99.58 46.9689 99.29C47.3389 99 47.6339 98.625 47.8539 98.165L48.7239 98.615C48.5039 99.145 48.1639 99.595 47.7039 99.965C47.2439 100.335 46.7289 100.615 46.1589 100.805C45.5989 100.995 45.0489 101.09 44.5089 101.09C43.7789 101.09 43.1089 100.935 42.4989 100.625C41.8889 100.305 41.3589 99.885 40.9089 99.365C40.4689 98.835 40.1289 98.245 39.8889 97.595C39.6489 96.935 39.5289 96.27 39.5289 95.6ZM51.1621 104.27C50.9921 104.27 50.8171 104.24 50.6371 104.18C50.4671 104.13 50.2921 104.055 50.1121 103.955L50.4871 103.235C50.5971 103.295 50.6971 103.345 50.7871 103.385C50.8871 103.425 50.9921 103.445 51.1021 103.445C51.3621 103.445 51.6071 103.315 51.8371 103.055C52.0671 102.795 52.2871 102.415 52.4971 101.915L52.8871 100.94L49.4071 93.185H50.4871L53.3521 99.95L55.9921 93.185H57.0121L53.2921 102.23C53.0921 102.7 52.8821 103.085 52.6621 103.385C52.4421 103.685 52.2071 103.905 51.9571 104.045C51.7071 104.195 51.4421 104.27 51.1621 104.27ZM57.567 102.815V100.085H57.702C57.932 100.085 58.142 100.015 58.332 99.875C58.522 99.735 58.692 99.49 58.842 99.14C58.992 98.79 59.112 98.31 59.202 97.7C59.292 97.08 59.352 96.3 59.382 95.36L59.457 93.185H64.542V100.085H65.592V102.815H64.677V101H58.467V102.815H57.567ZM59.247 100.085H63.522V94.1H60.372L60.327 95.45C60.297 96.38 60.232 97.16 60.132 97.79C60.042 98.41 59.922 98.905 59.772 99.275C59.632 99.635 59.457 99.905 59.247 100.085ZM67.1232 101V93.185H68.1432V95.945H70.1682C71.0582 95.945 71.7282 96.175 72.1782 96.635C72.6382 97.085 72.8682 97.68 72.8682 98.42C72.8682 98.9 72.7682 99.335 72.5682 99.725C72.3682 100.115 72.0732 100.425 71.6832 100.655C71.3032 100.885 70.8232 101 70.2432 101H67.1232ZM68.1432 100.19H70.1082C70.5182 100.19 70.8482 100.11 71.0982 99.95C71.3482 99.78 71.5332 99.565 71.6532 99.305C71.7732 99.035 71.8332 98.745 71.8332 98.435C71.8332 98.135 71.7782 97.86 71.6682 97.61C71.5682 97.35 71.3882 97.145 71.1282 96.995C70.8782 96.835 70.5282 96.755 70.0782 96.755H68.1432V100.19ZM73.8774 101L76.2024 97.805C75.6724 97.725 75.2424 97.495 74.9124 97.115C74.5924 96.725 74.4324 96.195 74.4324 95.525C74.4324 95.075 74.5374 94.675 74.7474 94.325C74.9574 93.975 75.2524 93.695 75.6324 93.485C76.0224 93.275 76.4774 93.17 76.9974 93.17H79.9824V101H78.9624V97.97H77.2224L75.0174 101H73.8774ZM76.9824 97.19H78.9624V93.98H77.1624C76.6424 93.98 76.2274 94.13 75.9174 94.43C75.6074 94.72 75.4524 95.09 75.4524 95.54C75.4524 96 75.5774 96.39 75.8274 96.71C76.0874 97.03 76.4724 97.19 76.9824 97.19Z" fill="white"/>
<defs>
<clipPath id="clip0_119_3071">
<rect width="48" height="48" fill="white" transform="translate(36 24)"/>
</clipPath>
</defs>
</svg>
