<svg width="120" height="131" viewBox="0 0 120 131" fill="none" xmlns="http://www.w3.org/2000/svg">
<g clip-path="url(#clip0_119_3069)">
<path d="M60 25.5998C64.4303 25.5998 68.7611 26.9135 72.4448 29.3749C76.1284 31.8362 78.9995 35.3346 80.6949 39.4277C82.3903 43.5207 82.8339 48.0246 81.9696 52.3698C81.1053 56.715 78.9719 60.7063 75.8392 63.839C71.6384 68.0398 65.9409 70.3998 60 70.3998C54.0592 70.3998 48.3617 68.0398 44.1608 63.839C39.96 59.6382 37.6 53.9407 37.6 47.9998C37.6 42.059 39.96 36.3614 44.1608 32.1606C46.236 30.074 48.7044 28.4198 51.4232 27.2936C54.142 26.1674 57.0572 25.5917 60 25.5998ZM60 23.9998C55.2533 23.9998 50.6131 25.4073 46.6663 28.0445C42.7195 30.6816 39.6434 34.4299 37.8269 38.8154C36.0104 43.2008 35.5351 48.0264 36.4612 52.6819C37.3872 57.3375 39.673 61.6139 43.0294 64.9703C46.3859 68.3268 50.6623 70.6126 55.3178 71.5386C59.9734 72.4646 64.799 71.9894 69.1844 70.1729C73.5698 68.3564 77.3181 65.2802 79.9553 61.3334C82.5924 57.3867 84 52.7465 84 47.9998C84 41.6346 81.4714 35.5301 76.9706 31.0292C72.4697 26.5283 66.3652 23.9998 60 23.9998Z" fill="white" fill-opacity="0.5"/>
<path d="M64.2731 47.9459L64.2201 47.8839C64.177 47.8377 64.1423 47.7885 64.0989 47.7452C63.6051 47.2353 63.0307 46.8103 62.3987 46.4873L62.0691 46.3283C62.089 46.3283 62.1038 46.2965 62.121 46.282C62.664 45.8967 63.0766 45.355 63.3037 44.7292C63.3037 44.7292 63.3888 44.443 63.4223 44.3244C63.6271 43.6624 63.624 42.9535 63.4136 42.2932C63.2031 41.633 62.7953 41.0531 62.2451 40.6318C61.6306 40.1199 60.861 39.8309 60.0615 39.812C59.2619 39.7931 58.4795 40.0454 57.8416 40.5277C57.3136 40.9161 56.9113 41.451 56.6848 42.066C56.5672 42.3426 56.4903 42.6348 56.4565 42.9335V42.9566C56.4389 43.1102 56.4341 43.2649 56.442 43.4193C56.4425 43.5392 56.4502 43.6589 56.4652 43.7779C56.4637 43.7933 56.4637 43.8088 56.4652 43.8241C56.4964 44.1206 56.5643 44.4119 56.6673 44.6916C56.7424 44.8826 56.8345 45.0664 56.9423 45.241C57.1655 45.6384 57.4711 45.9835 57.8386 46.2531C57.8661 46.2797 57.8951 46.3049 57.9254 46.3283L57.5929 46.4873C56.8739 46.8474 56.2305 47.3417 55.6973 47.9435C56.2029 48.0858 56.6735 48.3312 57.0796 48.6643C57.6114 49.0763 58.0191 49.627 58.2579 50.2559C58.7952 49.9946 59.3845 49.8578 59.982 49.8557C60.0134 49.8557 60.045 49.8561 60.076 49.8568C60.6566 49.872 61.2267 50.0146 61.746 50.2745C61.7545 50.2528 61.7616 50.2307 61.7705 50.2092C62.0177 49.552 62.45 48.9805 63.0151 48.5637C63.3925 48.2816 63.8191 48.0721 64.2731 47.9459Z" fill="white" fill-opacity="0.5"/>
<path d="M68.4318 54.9424C68.3999 54.9082 68.3743 54.8718 68.3423 54.8398C67.9773 54.4629 67.5527 54.1488 67.0855 53.91L66.8419 53.7925C66.8567 53.7925 66.8675 53.769 66.8803 53.7583C67.2817 53.4735 67.5866 53.0732 67.7545 52.6106C67.7545 52.6106 67.8174 52.399 67.8421 52.3114C67.9935 51.822 67.9913 51.298 67.8357 50.81C67.6801 50.322 67.3787 49.8934 66.972 49.582C66.5179 49.2035 65.9491 48.99 65.3581 48.976C65.3374 48.9756 65.3166 48.9753 65.2959 48.9753C64.7268 48.9801 64.1739 49.1656 63.7171 49.505C63.3269 49.7921 63.0296 50.1875 62.8622 50.6421C62.8165 50.75 62.7792 50.8611 62.7505 50.9746C63.2793 51.4638 63.6594 52.0922 63.8473 52.7876C64.0352 53.483 64.0232 54.2173 63.8128 54.9062C63.7988 54.955 63.7678 55.0979 63.7678 55.0979L63.7528 55.1391L63.6973 55.2921C63.6244 55.4928 63.5347 55.6869 63.429 55.8724C63.6508 56.0464 63.8606 56.2353 64.057 56.4376C64.1105 56.492 64.1506 56.5405 64.1752 56.5701L64.181 56.5771L64.189 56.5858L64.2048 56.6041L64.2967 56.7114C64.7118 57.1906 65.032 57.7444 65.2403 58.3433C66.6205 57.6405 67.8471 56.6699 68.8484 55.4882C68.7509 55.333 68.6416 55.1856 68.5216 55.0472L68.4318 54.9424Z" fill="white" fill-opacity="0.5"/>
<path d="M56.3471 49.582C55.8911 49.2068 55.3235 48.9937 54.7332 48.976C54.7125 48.9756 54.6917 48.9753 54.671 48.9753C54.1011 48.9753 53.5468 49.1613 53.0922 49.505C52.702 49.7921 52.4047 50.1875 52.2373 50.6421C52.1503 50.8466 52.0935 51.0625 52.0685 51.2833V51.3004C52.0555 51.4139 52.0519 51.5283 52.0578 51.6424C52.0581 51.731 52.0638 51.8195 52.0749 51.9074C52.0738 51.9187 52.0738 51.9302 52.0749 51.9416C52.098 52.1607 52.1481 52.376 52.2243 52.5828C52.2798 52.7239 52.3479 52.8598 52.4275 52.9889C52.5926 53.2826 52.8185 53.5377 53.0901 53.737C53.1104 53.7567 53.1319 53.7752 53.1543 53.7925L52.9084 53.91C52.1875 54.2619 51.5776 54.8057 51.1455 55.4816C52.147 56.6653 53.3745 57.6376 54.756 58.3416C55.1043 57.3545 55.7357 56.4919 56.5713 55.8616C56.4626 55.6796 56.369 55.489 56.2913 55.2917L56.2865 55.2796L56.282 55.2674C56.2664 55.2251 56.2533 55.1819 56.2392 55.1391C56.1489 54.8679 56.088 54.5878 56.0575 54.3036L56.057 54.2995L56.0566 54.2953C56.0538 54.2669 56.0519 54.2384 56.051 54.2099C56.0403 54.1061 56.0343 54.0006 56.033 53.8951C56.0265 53.7431 56.0303 53.5909 56.0442 53.4395V53.4153L56.0516 53.3497C56.0897 53.0121 56.1753 52.6815 56.3058 52.3678C56.5087 51.8297 56.8315 51.3449 57.2497 50.9503C57.2377 50.9034 57.2256 50.8564 57.2108 50.8101C57.0554 50.322 56.7539 49.8933 56.3471 49.582Z" fill="white" fill-opacity="0.5"/>
<path d="M75.9259 46.9805H75.785C75.5325 43.1475 73.8957 39.5367 71.1795 36.8204C68.4632 34.1042 64.8524 32.4674 61.0194 32.2149V32.074C61.0194 31.8036 60.9119 31.5443 60.7207 31.3531C60.5295 31.1619 60.2702 31.0544 59.9998 31.0544C59.7294 31.0544 59.4701 31.1619 59.2789 31.3531C59.0877 31.5443 58.9803 31.8036 58.9803 32.074V32.2149C55.1472 32.4674 51.5365 34.1042 48.8202 36.8204C46.1039 39.5367 44.4672 43.1475 44.2147 46.9805H44.0737C43.9398 46.9805 43.8073 47.0069 43.6836 47.0581C43.5599 47.1094 43.4475 47.1845 43.3528 47.2792C43.2581 47.3738 43.183 47.4862 43.1318 47.6099C43.0806 47.7336 43.0542 47.8662 43.0542 48.0001C43.0542 48.134 43.0806 48.2665 43.1318 48.3902C43.183 48.5139 43.2581 48.6263 43.3528 48.721C43.4475 48.8157 43.5599 48.8908 43.6836 48.942C43.8073 48.9932 43.9398 49.0196 44.0737 49.0196H44.2147C44.4782 53.1141 46.3256 56.9452 49.3652 59.7011C49.5784 59.8951 49.7971 60.083 50.0212 60.265C50.283 60.4784 50.5515 60.6837 50.8267 60.8808C51.1199 61.0901 51.4204 61.2895 51.7283 61.4787C52.5861 62.0072 53.4927 62.4522 54.4354 62.8077C54.6512 62.8891 54.8692 62.9657 55.0894 63.0378C55.9392 63.3161 56.8113 63.5212 57.6961 63.6508C58.119 63.7127 58.547 63.7576 58.9803 63.7853V63.9262C58.9803 64.1966 59.0877 64.4559 59.2789 64.6471C59.4701 64.8383 59.7294 64.9457 59.9998 64.9457C60.2702 64.9457 60.5295 64.8383 60.7207 64.6471C60.9119 64.4559 61.0194 64.1966 61.0194 63.9262V63.7853C61.4523 63.7576 61.8804 63.7127 62.3036 63.6508C63.1889 63.521 64.0614 63.3158 64.9117 63.0373C65.1316 62.9654 65.3494 62.8887 65.565 62.8074C66.5075 62.452 67.4138 62.0071 68.2714 61.4787C68.5788 61.2894 68.8793 61.0901 69.1728 60.8808C69.4486 60.6838 69.7177 60.4781 69.98 60.2638C70.2034 60.0816 70.4219 59.8938 70.6353 59.7003C73.6744 56.9444 75.5214 53.1137 75.785 49.0196H75.9259C76.1963 49.0196 76.4556 48.9122 76.6468 48.721C76.838 48.5298 76.9454 48.2705 76.9454 48.0001C76.9454 47.7297 76.838 47.4703 76.6468 47.2791C76.4556 47.0879 76.1963 46.9805 75.9259 46.9805L75.9259 46.9805ZM71.5519 46.9805H71.316C71.0456 46.9805 70.7863 47.088 70.5951 47.2792C70.4039 47.4704 70.2965 47.7297 70.2965 48.0001C70.2965 48.2705 70.4039 48.5298 70.5951 48.721C70.7863 48.9122 71.0456 49.0196 71.316 49.0196H73.738C73.5269 51.8989 72.4126 54.6382 70.5538 56.8473C70.3841 57.0493 70.2078 57.2455 70.027 57.4375C69.8435 57.6323 69.6545 57.8217 69.46 58.0055C68.4875 58.926 67.3866 59.7005 66.1917 60.3047C65.9904 60.4064 65.7865 60.5032 65.5797 60.5952C65.3876 60.6806 65.1933 60.7617 64.9966 60.8383C64.9514 60.8559 64.9067 60.8746 64.8613 60.8918C64.7126 60.948 64.5622 61.0004 64.4112 61.0516C63.315 61.4261 62.1749 61.6569 61.0194 61.7383V59.5521C61.0673 59.5479 61.116 59.5458 61.1638 59.5411C62.1921 59.4376 63.2017 59.196 64.1654 58.8229C64.0076 58.328 63.7501 57.8706 63.4087 57.4791L63.3134 57.3678C63.2796 57.3315 63.2523 57.2929 63.2183 57.2588C62.8306 56.8585 62.3796 56.5249 61.8834 56.2712L61.6246 56.1464C61.6403 56.1464 61.6519 56.1215 61.6654 56.1101C62.0888 55.8046 62.412 55.3803 62.594 54.891C62.594 54.891 62.6608 54.6662 62.687 54.5732C62.7022 54.524 62.7146 54.4741 62.7269 54.4243C62.8494 53.9217 62.8235 53.3945 62.6524 52.9063C62.4813 52.4182 62.1723 51.9902 61.7628 51.6741C61.2778 51.2768 60.6753 51.0505 60.0487 51.0305C60.0265 51.03 60.0044 51.0298 59.9823 51.0298C59.4576 51.0299 58.9437 51.1785 58.5 51.4584C58.4336 51.5002 58.3688 51.5449 58.3055 51.5923C57.8913 51.8975 57.5756 52.3174 57.3975 52.8001C57.3051 53.0173 57.2447 53.2467 57.2182 53.4812V53.4994C57.212 53.5525 57.2087 53.6059 57.2065 53.6593L57.2062 53.6642C57.2037 53.7303 57.2034 53.7965 57.2068 53.8626C57.2072 53.9567 57.2133 54.0507 57.225 54.1441C57.2238 54.1561 57.2238 54.1683 57.225 54.1804C57.234 54.2655 57.2481 54.3498 57.2647 54.4337C57.293 54.5792 57.3328 54.7222 57.3837 54.8615C57.4217 54.9563 57.4651 55.049 57.5137 55.1389C57.5412 55.1908 57.5686 55.2427 57.5995 55.2928C57.7748 55.6048 58.0147 55.8757 58.3033 56.0874C58.3249 56.1083 58.3476 56.128 58.3714 56.1464L58.1104 56.2712C56.9544 56.8712 56.192 57.7202 55.8328 58.8223C56.7974 59.1959 57.808 59.4377 58.8373 59.5412C58.8847 59.5459 58.9328 59.548 58.9803 59.5521V61.7383C57.8244 61.6569 56.6839 61.4259 55.5874 61.0512C55.4367 61.0001 55.2866 60.9479 55.1383 60.8918C55.0925 60.8744 55.0473 60.8556 55.0017 60.8378C54.8047 60.7608 54.6098 60.6795 54.4172 60.594C54.2114 60.5024 54.0083 60.406 53.8079 60.3047C52.6113 59.6996 51.509 58.9238 50.5356 58.0016C50.3398 57.8163 50.1495 57.6255 49.9647 57.4291C49.784 57.2369 49.6078 57.0408 49.4383 56.8385C47.5839 54.6309 46.4724 51.895 46.2617 49.0196H48.6837C48.8176 49.0196 48.9502 48.9932 49.0739 48.942C49.1976 48.8908 49.31 48.8157 49.4046 48.721C49.4993 48.6263 49.5744 48.5139 49.6257 48.3902C49.6769 48.2665 49.7033 48.134 49.7033 48.0001C49.7033 47.8662 49.6769 47.7336 49.6257 47.6099C49.5744 47.4862 49.4993 47.3738 49.4046 47.2792C49.31 47.1845 49.1976 47.1094 49.0739 47.0582C48.9502 47.0069 48.8176 46.9805 48.6837 46.9805H46.2617C46.51 43.6898 47.9298 40.5971 50.2633 38.2636C52.5968 35.93 55.6895 34.5103 58.9803 34.262V36.684C58.9803 36.9544 59.0877 37.2137 59.2789 37.4049C59.4701 37.5961 59.7294 37.7035 59.9998 37.7035C60.2702 37.7035 60.5295 37.5961 60.7207 37.4049C60.9119 37.2137 61.0194 36.9544 61.0194 36.684V34.2619C64.3101 34.5103 67.4028 35.93 69.7364 38.2635C72.0699 40.5971 73.4896 43.6898 73.738 46.9805H71.5519Z" fill="white" fill-opacity="0.5"/>
</g>
<path opacity="0.5" d="M39.9977 95.6C39.9977 94.95 40.1077 94.315 40.3277 93.695C40.5577 93.065 40.8877 92.495 41.3177 91.985C41.7477 91.465 42.2777 91.055 42.9077 90.755C43.5377 90.445 44.2527 90.29 45.0527 90.29C46.0027 90.29 46.8127 90.51 47.4827 90.95C48.1627 91.38 48.6627 91.935 48.9827 92.615L48.1577 93.125C47.9277 92.655 47.6377 92.285 47.2877 92.015C46.9377 91.735 46.5627 91.535 46.1627 91.415C45.7727 91.295 45.3827 91.235 44.9927 91.235C44.3527 91.235 43.7877 91.365 43.2977 91.625C42.8077 91.875 42.3927 92.215 42.0527 92.645C41.7227 93.065 41.4727 93.54 41.3027 94.07C41.1327 94.59 41.0477 95.12 41.0477 95.66C41.0477 96.25 41.1477 96.815 41.3477 97.355C41.5477 97.895 41.8277 98.375 42.1877 98.795C42.5477 99.205 42.9677 99.535 43.4477 99.785C43.9377 100.025 44.4677 100.145 45.0377 100.145C45.4377 100.145 45.8477 100.075 46.2677 99.935C46.6877 99.795 47.0777 99.58 47.4377 99.29C47.8077 99 48.1027 98.625 48.3227 98.165L49.1927 98.615C48.9727 99.145 48.6327 99.595 48.1727 99.965C47.7127 100.335 47.1977 100.615 46.6277 100.805C46.0677 100.995 45.5177 101.09 44.9777 101.09C44.2477 101.09 43.5777 100.935 42.9677 100.625C42.3577 100.305 41.8277 99.885 41.3777 99.365C40.9377 98.835 40.5977 98.245 40.3577 97.595C40.1177 96.935 39.9977 96.27 39.9977 95.6ZM50.7609 101V93.185H51.7809V96.53H52.9509L55.5759 93.185H56.7459L53.7609 96.98L57.1209 101H55.9209L52.9509 97.475H51.7809V101H50.7609ZM57.9096 98.75C57.9096 98.26 58.0496 97.84 58.3296 97.49C58.6096 97.13 58.9946 96.855 59.4846 96.665C59.9846 96.465 60.5596 96.365 61.2096 96.365C61.5896 96.365 61.9846 96.395 62.3946 96.455C62.8046 96.515 63.1696 96.605 63.4896 96.725V96.065C63.4896 95.405 63.2946 94.88 62.9046 94.49C62.5146 94.1 61.9746 93.905 61.2846 93.905C60.8646 93.905 60.4496 93.985 60.0396 94.145C59.6396 94.295 59.2196 94.52 58.7796 94.82L58.3896 94.1C58.8996 93.75 59.3996 93.49 59.8896 93.32C60.3796 93.14 60.8796 93.05 61.3896 93.05C62.3496 93.05 63.1096 93.325 63.6696 93.875C64.2296 94.425 64.5096 95.185 64.5096 96.155V99.77C64.5096 99.91 64.5396 100.015 64.5996 100.085C64.6596 100.145 64.7546 100.18 64.8846 100.19V101C64.7746 101.01 64.6796 101.02 64.5996 101.03C64.5196 101.04 64.4596 101.04 64.4196 101.03C64.1696 101.02 63.9796 100.94 63.8496 100.79C63.7196 100.64 63.6496 100.48 63.6396 100.31L63.6246 99.74C63.2746 100.19 62.8196 100.54 62.2596 100.79C61.6996 101.03 61.1296 101.15 60.5496 101.15C60.0496 101.15 59.5946 101.045 59.1846 100.835C58.7846 100.615 58.4696 100.325 58.2396 99.965C58.0196 99.595 57.9096 99.19 57.9096 98.75ZM63.1446 99.35C63.2546 99.21 63.3396 99.075 63.3996 98.945C63.4596 98.815 63.4896 98.7 63.4896 98.6V97.46C63.1496 97.33 62.7946 97.23 62.4246 97.16C62.0646 97.09 61.6996 97.055 61.3296 97.055C60.5996 97.055 60.0096 97.2 59.5596 97.49C59.1096 97.78 58.8846 98.175 58.8846 98.675C58.8846 98.965 58.9596 99.24 59.1096 99.5C59.2596 99.75 59.4796 99.96 59.7696 100.13C60.0596 100.29 60.3996 100.37 60.7896 100.37C61.2796 100.37 61.7346 100.275 62.1546 100.085C62.5846 99.895 62.9146 99.65 63.1446 99.35ZM67.334 104.27C67.164 104.27 66.989 104.24 66.809 104.18C66.639 104.13 66.464 104.055 66.284 103.955L66.659 103.235C66.769 103.295 66.869 103.345 66.959 103.385C67.059 103.425 67.164 103.445 67.274 103.445C67.534 103.445 67.779 103.315 68.009 103.055C68.239 102.795 68.459 102.415 68.669 101.915L69.059 100.94L65.579 93.185H66.659L69.524 99.95L72.164 93.185H73.184L69.464 102.23C69.264 102.7 69.054 103.085 68.834 103.385C68.614 103.685 68.379 103.905 68.129 104.045C67.879 104.195 67.614 104.27 67.334 104.27ZM76.5589 101V94.1H73.7689V93.185H80.3689V94.1H77.5789V101H76.5589Z" fill="white"/>
<defs>
<clipPath id="clip0_119_3069">
<rect width="48" height="48" fill="white" transform="translate(36 24)"/>
</clipPath>
</defs>
</svg>
