<svg width="109" height="139" viewBox="0 0 109 139" fill="none" xmlns="http://www.w3.org/2000/svg">
<path d="M71.7405 58.2676C69.5034 63.2292 65.4258 67.0969 60.4308 68.9099C64.6301 70.6352 72.6265 73.3615 80.8795 75.4632C85.3141 70.6468 88.4326 64.7156 89.9205 58.2676H71.7405Z" fill="#F04451"/>
<path d="M52.7886 69.944C47.1793 66.4564 42.0396 62.2532 38.6627 57.5356C38.4982 58.5144 38.358 59.5443 38.2368 60.6088C38.2349 60.6259 38.233 60.6455 38.231 60.6628C37.7321 65.0848 37.3102 74.023 37.5913 83.0741C37.7504 88.1973 38.134 93.3558 38.8583 97.7506C39.8552 98.2985 41.8138 99.375 41.8138 99.375L50.6534 87.1509C51.2132 87.2132 51.7774 87.2596 52.3444 87.296C52.3649 87.2973 52.3851 87.2995 52.4056 87.3007C52.7 87.3218 52.9945 87.3292 53.2889 87.343C53.75 87.3605 54.2109 87.379 54.6762 87.379C54.6865 87.379 54.6967 87.3784 54.707 87.3784C62.6388 87.4417 70.3804 84.8871 76.7897 80.0914C76.7014 80.0725 76.6074 80.0495 76.5178 80.0297C70.3356 78.6622 61.054 75.0829 52.7886 69.944Z" fill="#F04451"/>
<path d="M41.4582 36.9916C40.6345 37.1049 39.7767 37.2517 38.9023 37.4161C38.7584 37.4432 38.6184 37.4662 38.4734 37.4944C34.2906 38.3094 26.0021 40.5239 17.7578 43.455C12.9188 45.1754 8.09507 47.1422 4.12581 49.2191C3.91474 50.3592 3.5 52.5992 3.5 52.5992L17.5163 57.5982C17.5163 57.5982 17.5226 57.5928 17.5277 57.5884C19.2621 66.9963 24.3943 75.385 31.8974 81.076C31.8881 80.9795 31.881 80.8758 31.8722 80.7776C31.2622 73.9429 31.9139 62.9832 34.564 52.8853C36.122 46.9486 38.3681 41.3111 41.4582 36.9916Z" fill="#F04451"/>
<path d="M46.0686 31.3062C52.0559 31.0862 57.9671 31.6291 62.8995 33.3878C62.5514 32.6133 62.1622 31.8152 61.7516 31.0061C61.684 30.873 61.6214 30.7424 61.5524 30.6085C59.5619 26.7463 55.0591 19.2695 49.902 12.0471C46.875 7.80796 43.6231 3.65628 40.5203 0.375C39.3964 0.503719 37.1883 0.75652 37.1883 0.75652L36.6601 15.9748C36.6601 15.9748 36.667 15.9793 36.6725 15.983C28.4222 20.4541 22.1215 27.9574 19.031 36.9916C19.1182 36.9541 19.2126 36.9167 19.3015 36.8792C25.4867 34.2684 35.8847 31.6805 46.0686 31.3062Z" fill="#F04451"/>
<path d="M68.8691 33.0351C69.8211 35.3091 70.6598 37.6314 71.3818 39.9929C71.4084 40.0807 71.4352 40.1684 71.4614 40.2562H89.8109C89.4643 38.8435 89.038 37.4527 88.534 36.0909C88.4035 35.7375 88.2697 35.3857 88.1293 35.0375C82.858 21.9643 70.6627 12.5832 56.2332 11.7062C60.098 16.2221 65.031 23.9878 68.6413 32.4944C68.7177 32.6744 68.7937 32.8547 68.8691 33.0351Z" fill="#F04451"/>
<path d="M0.84 123.438C0.84 122.398 1.024 121.382 1.392 120.39C1.76 119.382 2.296 118.47 3 117.654C3.72 116.822 4.592 116.166 5.616 115.686C6.64 115.19 7.8 114.942 9.096 114.942C10.632 114.942 11.96 115.294 13.08 115.998C14.2 116.686 15.032 117.574 15.576 118.662L13.464 120.078C13.144 119.39 12.736 118.846 12.24 118.446C11.76 118.046 11.232 117.766 10.656 117.606C10.096 117.446 9.544 117.366 9 117.366C8.104 117.366 7.32 117.55 6.648 117.918C5.976 118.27 5.408 118.742 4.944 119.334C4.496 119.926 4.152 120.59 3.912 121.326C3.688 122.062 3.576 122.798 3.576 123.534C3.576 124.35 3.712 125.142 3.984 125.91C4.256 126.662 4.632 127.334 5.112 127.926C5.608 128.502 6.192 128.958 6.864 129.294C7.536 129.63 8.272 129.798 9.072 129.798C9.616 129.798 10.184 129.702 10.776 129.51C11.368 129.318 11.912 129.022 12.408 128.622C12.92 128.206 13.32 127.662 13.608 126.99L15.84 128.262C15.488 129.11 14.936 129.83 14.184 130.422C13.448 131.014 12.616 131.462 11.688 131.766C10.776 132.07 9.872 132.222 8.976 132.222C7.776 132.222 6.68 131.974 5.688 131.478C4.696 130.966 3.84 130.294 3.12 129.462C2.4 128.614 1.84 127.67 1.44 126.63C1.04 125.574 0.84 124.51 0.84 123.438ZM19.1289 115.038L23.8329 123.51L28.5849 115.038H31.5369L25.1769 125.982V132.078H22.4889V125.934L16.1769 115.038H19.1289ZM43.0547 119.046C42.8947 118.87 42.6627 118.686 42.3587 118.494C42.0547 118.286 41.6947 118.094 41.2787 117.918C40.8627 117.742 40.4147 117.598 39.9347 117.486C39.4547 117.374 38.9587 117.318 38.4467 117.318C37.3267 117.318 36.4947 117.526 35.9507 117.942C35.4067 118.358 35.1347 118.934 35.1347 119.67C35.1347 120.214 35.2867 120.646 35.5907 120.966C35.8947 121.27 36.3587 121.526 36.9827 121.734C37.6067 121.942 38.3907 122.166 39.3347 122.406C40.4867 122.678 41.4867 123.006 42.3347 123.39C43.1827 123.758 43.8307 124.254 44.2787 124.878C44.7267 125.502 44.9507 126.326 44.9507 127.35C44.9507 128.214 44.7907 128.958 44.4707 129.582C44.1507 130.206 43.7027 130.718 43.1267 131.118C42.5507 131.502 41.8867 131.79 41.1347 131.982C40.3827 132.158 39.5747 132.246 38.7107 132.246C37.8627 132.246 37.0147 132.158 36.1667 131.982C35.3347 131.806 34.5347 131.55 33.7667 131.214C33.0147 130.862 32.3187 130.438 31.6787 129.942L32.9027 127.638C33.1107 127.846 33.4067 128.078 33.7907 128.334C34.1907 128.574 34.6467 128.806 35.1587 129.03C35.6867 129.254 36.2547 129.446 36.8627 129.606C37.4867 129.75 38.1187 129.822 38.7587 129.822C39.8307 129.822 40.6467 129.638 41.2067 129.27C41.7827 128.886 42.0707 128.342 42.0707 127.638C42.0707 127.062 41.8867 126.606 41.5187 126.27C41.1507 125.918 40.6147 125.622 39.9107 125.382C39.2067 125.142 38.3667 124.902 37.3907 124.662C36.2707 124.358 35.3347 124.03 34.5827 123.678C33.8307 123.31 33.2627 122.846 32.8787 122.286C32.5107 121.71 32.3267 120.982 32.3267 120.102C32.3267 118.982 32.5987 118.038 33.1427 117.27C33.6867 116.486 34.4227 115.902 35.3507 115.518C36.2947 115.118 37.3507 114.918 38.5187 114.918C39.2867 114.918 40.0147 115.006 40.7027 115.182C41.3907 115.342 42.0307 115.566 42.6227 115.854C43.2307 116.142 43.7827 116.47 44.2787 116.838L43.0547 119.046ZM47.6466 132.078V115.038H54.7986C55.5666 115.038 56.2706 115.198 56.9106 115.518C57.5506 115.838 58.1106 116.262 58.5906 116.79C59.0706 117.318 59.4386 117.91 59.6946 118.566C59.9506 119.222 60.0786 119.894 60.0786 120.582C60.0786 121.526 59.8626 122.43 59.4306 123.294C59.0146 124.142 58.4146 124.83 57.6306 125.358C56.8626 125.886 55.9666 126.15 54.9426 126.15H50.3346V132.078H47.6466ZM50.3346 123.774H54.7746C55.2866 123.774 55.7346 123.638 56.1186 123.366C56.5026 123.078 56.7986 122.694 57.0066 122.214C57.2306 121.734 57.3426 121.19 57.3426 120.582C57.3426 119.958 57.2146 119.406 56.9586 118.926C56.7026 118.446 56.3666 118.078 55.9506 117.822C55.5506 117.55 55.1106 117.414 54.6306 117.414H50.3346V123.774ZM65.2877 120.03V132.078H62.5997V115.038H64.8077L74.4557 127.35V115.062H77.1677V132.078H74.8157L65.2877 120.03ZM92.6861 129.702V132.078H80.9981V115.038H92.4701V117.414H83.6861V122.262H91.2941V124.494H83.6861V129.702H92.6861ZM107.963 117.414H102.299V132.078H99.5871V117.414H93.8991V115.038H107.963V117.414Z" fill="#F04451"/>
</svg>
